{"asset":{"copyright":"","generator":"Source 2 Viewer 20.0.0.0 - https://valveresourceformat.github.io","version":"2.0"},"accessors":[{"name":"Animation.Input","bufferView":0,"componentType":5126,"count":1,"max":[0],"min":[0],"type":"SCALAR"},{"name":"Animation.Output","bufferView":1,"componentType":5126,"count":1,"type":"VEC4"},{"name":"Animation.Input","bufferView":2,"componentType":5126,"count":1,"max":[0],"min":[0],"type":"SCALAR"},{"name":"Animation.Output","bufferView":3,"componentType":5126,"count":1,"max":[0,0,0],"min":[0,0,0],"type":"VEC3"},{"name":"Animation.Input","bufferView":4,"componentType":5126,"count":1,"max":[0],"min":[0],"type":"SCALAR"},{"name":"Animation.Output","bufferView":5,"componentType":5126,"count":1,"max":[1,1,1],"min":[1,1,1],"type":"VEC3"},{"name":"Animation.Input","bufferView":6,"componentType":5126,"count":1,"max":[0],"min":[0],"type":"SCALAR"},{"name":"Animation.Output","bufferView":7,"componentType":5126,"count":1,"type":"VEC4"},{"name":"Animation.Input","bufferView":8,"componentType":5126,"count":1,"max":[0],"min":[0],"type":"SCALAR"},{"name":"Animation.Output","bufferView":9,"componentType":5126,"count":1,"max":[0,0,0],"min":[0,0,0],"type":"VEC3"},{"name":"Animation.Input","bufferView":10,"componentType":5126,"count":1,"max":[0],"min":[0],"type":"SCALAR"},{"name":"Animation.Output","bufferView":11,"componentType":5126,"count":1,"max":[1,1,1],"min":[1,1,1],"type":"VEC3"},{"bufferView":12,"componentType":5126,"count":11485,"max":[2.7461018562316895,8.447394371032715,1.8656820058822632],"min":[-2.7759432792663574,0.009488736279308796,-1.865681767463684],"type":"VEC3"},{"bufferView":13,"componentType":5126,"count":11485,"max":[0.9963988065719604,0.9971618056297302],"min":[0.0027161473408341408,0.002075258642435074],"type":"VEC2"},{"bufferView":14,"componentType":5126,"count":11485,"max":[0.9998699426651001,0.9999998807907104,0.9998698234558105],"min":[-0.9999998807907104,-0.9997313022613525,-0.9997313022613525],"type":"VEC3"},{"bufferView":15,"componentType":5126,"count":11485,"type":"VEC4"},{"bufferView":16,"componentType":5123,"count":11485,"type":"VEC4"},{"bufferView":17,"componentType":5126,"count":11485,"type":"VEC4"},{"bufferView":18,"componentType":5125,"count":16488,"type":"SCALAR"},{"name":"Bind Matrices","bufferView":19,"componentType":5126,"count":1,"type":"MAT4"}],"animations":[{"name":"tower_bad_idle","channels":[{"sampler":0,"target":{"node":1,"path":"rotation"}},{"sampler":1,"target":{"node":1,"path":"translation"}},{"sampler":2,"target":{"node":1,"path":"scale"}}],"samplers":[{"input":0,"output":1},{"input":2,"output":3},{"input":4,"output":5}]},{"name":"tower_bad_attack","channels":[{"sampler":0,"target":{"node":1,"path":"rotation"}},{"sampler":1,"target":{"node":1,"path":"translation"}},{"sampler":2,"target":{"node":1,"path":"scale"}}],"samplers":[{"input":6,"output":7},{"input":8,"output":9},{"input":10,"output":11}]}],"bufferViews":[{"buffer":0,"byteLength":4,"byteOffset":893016},{"buffer":0,"byteLength":16,"byteOffset":892936},{"buffer":0,"byteLength":4,"byteOffset":893020},{"buffer":0,"byteLength":12,"byteOffset":892968},{"buffer":0,"byteLength":4,"byteOffset":893024},{"buffer":0,"byteLength":12,"byteOffset":892980},{"buffer":0,"byteLength":4,"byteOffset":893028},{"buffer":0,"byteLength":16,"byteOffset":892952},{"buffer":0,"byteLength":4,"byteOffset":893032},{"buffer":0,"byteLength":12,"byteOffset":892992},{"buffer":0,"byteLength":4,"byteOffset":893036},{"buffer":0,"byteLength":12,"byteOffset":893004},{"buffer":0,"byteLength":137820,"byteOffset":367520,"target":34962},{"buffer":0,"byteLength":91880,"byteOffset":643160,"target":34962},{"buffer":0,"byteLength":137820,"byteOffset":505340,"target":34962},{"buffer":0,"byteLength":183760,"target":34962},{"buffer":0,"byteLength":91880,"byteOffset":735040,"byteStride":8,"target":34962},{"buffer":0,"byteLength":183760,"byteOffset":183760,"target":34962},{"buffer":0,"byteLength":65952,"byteOffset":826920,"target":34963},{"buffer":0,"byteLength":64,"byteOffset":892872}],"buffers":[{"byteLength":893040,"uri":"tower_bad.bin"}],"images":[{"name":"bad_tower002_color_psd_be36b9e6.vtex","uri":"bad_tower002_color_psd_be36b9e6.png"},{"name":"bad_tower002_refl_tga_5e2a11a9.vtex","uri":"bad_tower002_refl_tga_5e2a11a9.png"}],"materials":[{"extras":{"vmat":{"Name":"materials/models/props_structures/bad_tower002.vmat","ShaderName":"global_lit_simple.vfx","IntParams":{"F_SPECULAR":1},"FloatParams":{"g_flSpecularBloom":0.33},"VectorParams":{"TextureBloom":[0,0,0,0]},"TextureParams":{"g_tColor":"materials/models/props_structures/bad_tower002_color_psd_be36b9e6.vtex","g_tSpecular":"materials/models/props_structures/bad_tower002_refl_tga_5e2a11a9.vtex"}}},"name":"bad_tower002","emissiveTexture":{"index":1},"pbrMetallicRoughness":{"baseColorTexture":{"index":0},"metallicFactor":0}}],"meshes":[{"extras":{},"name":"models/props_structures/tower_bad.vmdl_c.tower_bad_model","primitives":[{"attributes":{"POSITION":12,"TEXCOORD_0":13,"NORMAL":14,"TANGENT":15,"JOINTS_0":16,"WEIGHTS_0":17},"indices":18,"material":0}]}],"nodes":[{"name":"models/props_structures/tower_bad.vmdl_c","children":[1],"matrix":[0.99999994,-2.425888E-15,-6.793577E-22,0,-2.7940974E-23,0.99999994,-3.1914448E-15,0,-2.425888E-15,-2.7940974E-23,0.99999994,0,0,0,0,1]},{"name":"joint1","rotation":[0,0,0,0.99999994]},{"name":"models/props_structures/tower_bad.vmdl_c.tower_bad_model","mesh":0,"skin":0}],"samplers":[{"magFilter":9729,"minFilter":9987}],"scenes":[{"name":"tower_bad.vmdl_c","nodes":[0,2]}],"skins":[{"inverseBindMatrices":19,"joints":[1]}],"textures":[{"name":"bad_tower002_color_psd_be36b9e6.vtex","sampler":0,"source":0},{"name":"bad_tower002_refl_tga_5e2a11a9.vtex","sampler":0,"source":1}]}