{"asset":{"copyright":"","generator":"Source 2 Viewer 20.0.0.0 - https://valveresourceformat.github.io","version":"2.0"},"extensionsUsed":["KHR_materials_specular"],"accessors":[{"bufferView":0,"componentType":5126,"count":1535,"max":[1.9794889688491821,4.5325822830200195,0.22334395349025726],"min":[1.205324649810791,0.016902469098567963,-0.2070319801568985],"type":"VEC3"},{"bufferView":1,"componentType":5126,"count":1535,"max":[0.9971007704734802,0.9930417537689209],"min":[0.00119022186845541,0.009826960042119026],"type":"VEC2"},{"bufferView":2,"componentType":5126,"count":1535,"max":[0.9998698830604553,0.9999998807907104,0.9999998807907104],"min":[-0.9999998807907104,-0.9999998807907104,-0.9998698234558105],"type":"VEC3"},{"bufferView":3,"componentType":5126,"count":1535,"type":"VEC4"},{"bufferView":4,"componentType":5123,"count":1535,"type":"VEC4"},{"bufferView":5,"componentType":5126,"count":1535,"type":"VEC4"},{"bufferView":6,"componentType":5125,"count":3279,"type":"SCALAR"},{"name":"Bind Matrices","bufferView":7,"componentType":5126,"count":11,"type":"MAT4"}],"bufferViews":[{"buffer":0,"byteLength":18420,"byteOffset":49120,"target":34962},{"buffer":0,"byteLength":12280,"byteOffset":99076,"target":34962},{"buffer":0,"byteLength":18420,"byteOffset":67540,"target":34962},{"buffer":0,"byteLength":24560,"target":34962},{"buffer":0,"byteLength":12280,"byteOffset":111356,"byteStride":8,"target":34962},{"buffer":0,"byteLength":24560,"byteOffset":24560,"target":34962},{"buffer":0,"byteLength":13116,"byteOffset":85960,"target":34963},{"buffer":0,"byteLength":704,"byteOffset":123636}],"buffers":[{"byteLength":124340,"uri":"crystal_maiden_staff.bin"}],"images":[{"name":"crystal_maiden_staff_color_psd_1b36259a.vtex","uri":"crystal_maiden_staff_color_psd_1b36259a.png"},{"name":"crystal_maiden_staff_metalnessmask_tga_5e74f76.vtex","uri":"crystal_maiden_staff_metalnessmask_tga_5e74f76.png"},{"name":"crystal_maiden_staff_specmask_tga_d478efee.vtex","uri":"crystal_maiden_staff_specmask_tga_d478efee.png"},{"name":"flatnormal_normal_psd_b51689c6.vtex","uri":"flatnormal_normal_psd_b51689c6.png"},{"name":"crystal_maiden_staff_metalnessmask_tga_5e74f76_orm_3349629504.png","uri":"crystal_maiden_staff_metalnessmask_tga_5e74f76_orm_3349629504.png"}],"materials":[{"extensions":{"KHR_materials_specular":{"specularColorFactor":[0.612501,0.836007,1],"specularTexture":{"index":2}}},"extras":{"vmat":{"Name":"materials/models/heroes/crystal_maiden/crystal_maiden_staff_color.vmat","ShaderName":"hero.vfx","IntParams":{"F_ALPHA_TEST":1,"F_TRANSLUCENT":0,"F_MASKS_1":1,"F_MASKS_2":1,"F_DIFFUSE_WARP":1,"F_USE_STATUS_EFFECTS_PROXY":1},"FloatParams":{"g_flAmbientScale":1,"g_flDetailBlendToFull":0,"g_flDiffuseWarpBlendToFull":0,"g_flMetalnessBlendToFull":0,"g_flSelfIllumBlendToFull":0,"g_flSpecularBlendToFull":0,"g_flEnvMapBlendToFull":0,"g_flReflectionsTintByBaseBlendToNone":0,"g_flSpecularExponentBlendToFull":0,"g_flBloomScale":0,"g_flBloomShift":0,"g_flSpecularExponent":5,"g_flSpecularScale":12,"g_flRimLightScale":3},"VectorParams":{"TextureTranslucency":[1,1,1,0],"TextureDetailMask":[0,0,0,0],"TextureDiffuseWarpMask":[0,0,0,0],"g_vBloomColor":[1,1,1,0],"g_vSpecularColor":[0.612501,0.836007,1,0],"g_vRimLightColor":[1,1,1,0]},"TextureParams":{"g_tColor":"materials/models/heroes/crystal_maiden/crystal_maiden_staff_color_psd_1b36259a.vtex","g_tDetail2":"materials/default/default_detail2_tga_70788555.vtex","g_tFresnelWarp":"materials/default/default_fresnelwarprim_tga_d9279d65.vtex","g_tMasks1":"materials/models/heroes/crystal_maiden/crystal_maiden_staff_metalnessmask_tga_5e74f76.vtex","g_tMasks2":"materials/models/heroes/crystal_maiden/crystal_maiden_staff_specmask_tga_d478efee.vtex","g_tNormal":"materials/models/development/flatnormal_normal_psd_b51689c6.vtex","g_tDiffuseWarp":"materials/models/heroes/drow/diffusewarp_diffusewarp_psd_b1607356.vtex"}}},"name":"crystal_maiden_staff_color","alphaMode":"MASK","emissiveTexture":{"index":1},"normalTexture":{"index":3},"occlusionTexture":{"index":4},"pbrMetallicRoughness":{"baseColorTexture":{"index":0},"metallicRoughnessTexture":{"index":4}}}],"meshes":[{"extras":{},"name":"models/heroes/crystal_maiden/crystal_maiden_staff.vmdl_c.crystal_maiden_staff_model","primitives":[{"attributes":{"POSITION":0,"TEXCOORD_0":1,"NORMAL":2,"TANGENT":3,"JOINTS_0":4,"WEIGHTS_0":5},"indices":6,"material":0}]}],"nodes":[{"name":"models/heroes/crystal_maiden/crystal_maiden_staff.vmdl_c","children":[1],"matrix":[0.99999994,-2.425888E-15,-6.793577E-22,0,-2.7940974E-23,0.99999994,-3.1914448E-15,0,-2.425888E-15,-2.7940974E-23,0.99999994,0,0,0,0,1]},{"name":"root_0","children":[2],"rotation":[-0.49999997,-0.49999997,-0.49999997,0.49999997],"translation":[5.9604645E-08,2.5304744,-0.10824773]},{"name":"spine_0","children":[3],"rotation":[2.1678064E-08,-0.7241602,-2.1678064E-08,0.6896318],"translation":[0.057461552,-8.753176E-15,0.23190793]},{"name":"spine_1","children":[4],"rotation":[1.2389663E-09,-0.047325026,2.6150607E-08,0.9988795],"translation":[0.21272112,-2.3101165E-14,3.027916E-08]},{"name":"spine_3","children":[5],"rotation":[-3.0404423E-10,-0.017420448,-1.7450645E-08,0.99984825],"translation":[0.2653681,-5.7752913E-15,1.9378662E-07]},{"name":"clavicle_l","children":[6],"rotation":[0.64415556,0.2916568,0.5592282,0.43273994],"translation":[0.16839224,0.03555966,-0.06808058]},{"name":"bicep_l","children":[7],"rotation":[-0.46969682,0.4533851,0.41626278,0.632892],"translation":[0.39771512,3.8757324E-07,-3.488159E-06]},{"name":"elbow_l","children":[8],"rotation":[-2.6533743E-07,0.18473372,-4.501261E-09,0.9827886],"translation":[0.7262437,1.9378663E-06,-3.027916E-07]},{"name":"wrist_l","children":[9],"rotation":[0.088596985,-0.035307728,-0.061335657,0.9935502],"translation":[0.61084276,2.9067992E-06,1.9378663E-06]},{"name":"staff2","children":[10,11],"rotation":[0.8759724,-0.46024522,0.04631917,-0.1367524],"translation":[0.41474,-0.4977382,-0.11910199]},{"name":"staff_dangle2_R1C0","rotation":[7.598344E-08,-1.9605912E-07,-0.70710677,0.70710677],"translation":[0.29266712,1.3901448,-1.304813E-07]},{"name":"staff_dangle1_R1C0","rotation":[-1.6198106E-08,-2.2422374E-07,-0.7014732,0.7126959],"translation":[-0.296956,1.3922986,-8.0148105E-08]},{"name":"models/heroes/crystal_maiden/crystal_maiden_staff.vmdl_c.crystal_maiden_staff_model","mesh":0,"skin":0}],"samplers":[{"magFilter":9729,"minFilter":9987}],"scenes":[{"name":"crystal_maiden_staff.vmdl_c","nodes":[0,12]}],"skins":[{"inverseBindMatrices":7,"joints":[1,2,3,4,5,6,7,8,9,10,11]}],"textures":[{"name":"crystal_maiden_staff_color_psd_1b36259a.vtex","sampler":0,"source":0},{"name":"crystal_maiden_staff_metalnessmask_tga_5e74f76.vtex","sampler":0,"source":1},{"name":"crystal_maiden_staff_specmask_tga_d478efee.vtex","sampler":0,"source":2},{"name":"flatnormal_normal_psd_b51689c6.vtex","sampler":0,"source":3},{"name":"crystal_maiden_staff_metalnessmask_tga_5e74f76_orm_3349629504.png","sampler":0,"source":4}]}