{"asset":{"copyright":"","generator":"Source 2 Viewer 20.0.0.0 - https://valveresourceformat.github.io","version":"2.0"},"extensionsUsed":["KHR_materials_specular"],"accessors":[{"bufferView":0,"componentType":5126,"count":170,"max":[0.6835214495658875,3.6018776893615723,-0.32078278064727783],"min":[-0.6835235357284546,0.09755326062440872,-0.9231058955192566],"type":"VEC3"},{"bufferView":1,"componentType":5126,"count":170,"max":[1.97265625,0.97607421875],"min":[0.0192108154296875,0.0139007568359375],"type":"VEC2"},{"bufferView":2,"componentType":5126,"count":170,"max":[0.9934531450271606,0.8283810615539551,0.9998698234558105],"min":[-0.9941521883010864,-0.8104736804962158,-0.9998698234558105],"type":"VEC3"},{"bufferView":3,"componentType":5126,"count":170,"type":"VEC4"},{"bufferView":4,"componentType":5123,"count":170,"type":"VEC4"},{"bufferView":5,"componentType":5126,"count":170,"type":"VEC4"},{"bufferView":6,"componentType":5125,"count":612,"type":"SCALAR"},{"name":"Bind Matrices","bufferView":7,"componentType":5126,"count":16,"type":"MAT4"}],"bufferViews":[{"buffer":0,"byteLength":2040,"byteOffset":7888,"target":34962},{"buffer":0,"byteLength":1360,"byteOffset":11968,"target":34962},{"buffer":0,"byteLength":2040,"byteOffset":9928,"target":34962},{"buffer":0,"byteLength":2720,"target":34962},{"buffer":0,"byteLength":1360,"byteOffset":13328,"byteStride":8,"target":34962},{"buffer":0,"byteLength":2720,"byteOffset":2720,"target":34962},{"buffer":0,"byteLength":2448,"byteOffset":5440,"target":34963},{"buffer":0,"byteLength":1024,"byteOffset":14688}],"buffers":[{"byteLength":15712,"uri":"crystal_maiden_cape.bin"}],"images":[{"name":"crystal_maiden_cape_color_psd_a138152d.vtex","uri":"crystal_maiden_cape_color_psd_a138152d.png"},{"name":"crystal_maiden_cape_diffusemask_tga_1ad3d1b8.vtex","uri":"crystal_maiden_cape_diffusemask_tga_1ad3d1b8.png"},{"name":"crystal_maiden_cape_specmask_tga_4e7a088.vtex","uri":"crystal_maiden_cape_specmask_tga_4e7a088.png"},{"name":"crystal_maiden_cape_normal_psd_aa4e0a8.vtex","uri":"crystal_maiden_cape_normal_psd_aa4e0a8.png"},{"name":"crystal_maiden_cape_diffusemask_tga_1ad3d1b8_orm_231779949.png","uri":"crystal_maiden_cape_diffusemask_tga_1ad3d1b8_orm_231779949.png"}],"materials":[{"extensions":{"KHR_materials_specular":{"specularColorFactor":[0.612501,0.836007,1],"specularTexture":{"index":2}}},"extras":{"vmat":{"Name":"materials/models/heroes/crystal_maiden/crystal_maiden_cape.vmat","ShaderName":"hero.vfx","IntParams":{"F_ALPHA_TEST":1,"F_TRANSLUCENT":0,"F_MASKS_1":1,"F_MASKS_2":1,"F_USE_STATUS_EFFECTS_PROXY":1},"FloatParams":{"g_flAmbientScale":1,"g_flDetailBlendToFull":0,"g_flDiffuseWarpBlendToFull":0,"g_flMetalnessBlendToFull":0,"g_flSelfIllumBlendToFull":0,"g_flSpecularBlendToFull":0,"g_flEnvMapBlendToFull":0,"g_flReflectionsTintByBaseBlendToNone":0,"g_flSpecularExponentBlendToFull":0,"g_flBloomScale":0,"g_flBloomShift":0,"g_flSpecularExponent":35,"g_flSpecularScale":6,"g_flRimLightScale":1},"VectorParams":{"TextureTranslucency":[1,1,1,0],"TextureDetailMask":[0,0,0,0],"g_vBloomColor":[1,1,1,0],"g_vSpecularColor":[0.612501,0.836007,1,0],"g_vRimLightColor":[1,1,1,0]},"TextureParams":{"g_tColor":"materials/models/heroes/crystal_maiden/crystal_maiden_cape_color_psd_a138152d.vtex","g_tDetail2":"materials/default/default_detail2_tga_70788555.vtex","g_tFresnelWarp":"materials/default/default_fresnelwarprim_tga_d9279d65.vtex","g_tMasks1":"materials/models/heroes/crystal_maiden/crystal_maiden_cape_diffusemask_tga_1ad3d1b8.vtex","g_tMasks2":"materials/models/heroes/crystal_maiden/crystal_maiden_cape_specmask_tga_4e7a088.vtex","g_tNormal":"materials/models/heroes/crystal_maiden/crystal_maiden_cape_normal_psd_aa4e0a8.vtex"}}},"name":"crystal_maiden_cape","alphaMode":"MASK","emissiveTexture":{"index":1},"normalTexture":{"index":3},"occlusionTexture":{"index":4},"pbrMetallicRoughness":{"baseColorTexture":{"index":0},"metallicRoughnessTexture":{"index":4}}}],"meshes":[{"extras":{},"name":"models/heroes/crystal_maiden/crystal_maiden_cape.vmdl_c.crystal_maiden_cape_model","primitives":[{"attributes":{"POSITION":0,"TEXCOORD_0":1,"NORMAL":2,"TANGENT":3,"JOINTS_0":4,"WEIGHTS_0":5},"indices":6,"material":0}]}],"nodes":[{"name":"models/heroes/crystal_maiden/crystal_maiden_cape.vmdl_c","children":[1],"matrix":[0.99999994,-2.425888E-15,-6.793577E-22,0,-2.7940974E-23,0.99999994,-3.1914448E-15,0,-2.425888E-15,-2.7940974E-23,0.99999994,0,0,0,0,1]},{"name":"root_0","children":[2],"rotation":[-0.49999997,-0.49999997,-0.49999997,0.49999997],"translation":[5.9604645E-08,2.5304744,-0.10824773]},{"name":"spine_0","children":[3],"rotation":[2.1678064E-08,-0.7241602,-2.1678064E-08,0.6896318],"translation":[0.057461552,-8.753176E-15,0.23190793]},{"name":"spine_1","children":[4],"rotation":[1.2389663E-09,-0.047325026,2.6150607E-08,0.9988795],"translation":[0.21272112,-2.3101165E-14,3.027916E-08]},{"name":"spine_3","children":[5,9,13,14,15],"rotation":[-3.0404423E-10,-0.017420448,-1.7450645E-08,0.99984825],"translation":[0.2653681,-5.7752913E-15,1.9378662E-07]},{"name":"Cape_R0C1","children":[6],"rotation":[0.03928599,0.7012032,0.7060146,-0.09118176],"translation":[0.05724825,-0.16509964,0.3793802]},{"name":"Cape_R1C1","children":[7],"rotation":[-5.261856E-08,3.3386571E-09,0.03257636,0.9994693],"translation":[0.78299075,3.8757324E-07,4.8446655E-08]},{"name":"Cape_R2C1","children":[8],"rotation":[-1.3202103E-08,-2.1549E-08,0.040463604,0.999181],"translation":[0.9293826,0.010210035,-5.8135987E-07]},{"name":"Cape_R3C1","rotation":[-1.7454965E-08,-9.960752E-09,0,1],"translation":[0.73885334,-0.01011261,-1.4291763E-06]},{"name":"Cape_R0C0","children":[10],"rotation":[0.09323195,0.70612615,0.7009339,-0.037221417],"translation":[0.057249025,0.1650999,0.37938067]},{"name":"Cape_R1C0","children":[11],"rotation":[6.244628E-08,-3.8646967E-08,0.03257638,0.9994693],"translation":[0.78298885,8.720398E-07,4.360199E-07]},{"name":"Cape_R2C0","children":[12],"rotation":[4.966259E-09,8.366453E-08,0.04046359,0.99918103],"translation":[0.92938083,0.010211392,1.3080597E-06]},{"name":"Cape_R3C0","rotation":[-2.1100157E-09,5.809814E-09,2.235162E-08,1],"translation":[0.73885334,-0.010110526,2.8583527E-06]},{"name":"clavicle_L","rotation":[0.64415514,0.29165637,0.55922854,0.43274054],"translation":[0.16839302,0.035559904,-0.06808073]},{"name":"clavicle_R","rotation":[-0.55922806,-0.43273976,0.64415574,0.29165697],"translation":[0.1683934,-0.035560053,-0.068080634]},{"name":"Head_0","children":[16],"rotation":[1.8967871E-15,0.09947572,-8.69644E-09,0.99504],"translation":[0.41195217,1.7721286E-08,-4.360199E-07]},{"name":"Head_1","rotation":[0.0015405505,0.6996708,0.0015733683,0.714462],"translation":[0.32902256,1.3153203E-08,4.360199E-07]},{"name":"models/heroes/crystal_maiden/crystal_maiden_cape.vmdl_c.crystal_maiden_cape_model","mesh":0,"skin":0}],"samplers":[{"magFilter":9729,"minFilter":9987}],"scenes":[{"name":"crystal_maiden_cape.vmdl_c","nodes":[0,17]}],"skins":[{"inverseBindMatrices":7,"joints":[1,2,3,4,5,9,6,10,7,11,13,8,14,12,15,16]}],"textures":[{"name":"crystal_maiden_cape_color_psd_a138152d.vtex","sampler":0,"source":0},{"name":"crystal_maiden_cape_diffusemask_tga_1ad3d1b8.vtex","sampler":0,"source":1},{"name":"crystal_maiden_cape_specmask_tga_4e7a088.vtex","sampler":0,"source":2},{"name":"crystal_maiden_cape_normal_psd_aa4e0a8.vtex","sampler":0,"source":3},{"name":"crystal_maiden_cape_diffusemask_tga_1ad3d1b8_orm_231779949.png","sampler":0,"source":4}]}