{"asset":{"copyright":"","generator":"Source 2 Viewer 20.0.0.0 - https://valveresourceformat.github.io","version":"2.0"},"extensionsUsed":["KHR_materials_specular"],"accessors":[{"bufferView":0,"componentType":5126,"count":234,"max":[1.1587339639663696,2.8487117290496826,0.055050093680620193],"min":[-1.1587351560592651,2.1325221061706543,-0.42003142833709717],"type":"VEC3"},{"bufferView":1,"componentType":5126,"count":234,"max":[0.9699698090553284,0.9563585519790649],"min":[0.034363843500614166,0.06430249661207199],"type":"VEC2"},{"bufferView":2,"componentType":5126,"count":234,"max":[0.9930429458618164,0.9623093008995056,0.980587899684906],"min":[-0.9947521686553955,-0.9805877804756165,-0.9898329973220825],"type":"VEC3"},{"bufferView":3,"componentType":5126,"count":234,"type":"VEC4"},{"bufferView":4,"componentType":5123,"count":234,"type":"VEC4"},{"bufferView":5,"componentType":5126,"count":234,"type":"VEC4"},{"bufferView":6,"componentType":5125,"count":1182,"type":"SCALAR"},{"name":"Bind Matrices","bufferView":7,"componentType":5126,"count":21,"type":"MAT4"}],"bufferViews":[{"buffer":0,"byteLength":2808,"byteOffset":12216,"target":34962},{"buffer":0,"byteLength":1872,"byteOffset":17832,"target":34962},{"buffer":0,"byteLength":2808,"byteOffset":15024,"target":34962},{"buffer":0,"byteLength":3744,"byteOffset":4728,"target":34962},{"buffer":0,"byteLength":1872,"byteOffset":19704,"byteStride":8,"target":34962},{"buffer":0,"byteLength":3744,"byteOffset":8472,"target":34962},{"buffer":0,"byteLength":4728,"target":34963},{"buffer":0,"byteLength":1344,"byteOffset":21576}],"buffers":[{"byteLength":22920,"uri":"crystal_maiden_cuffs.bin"}],"images":[{"name":"crystal_maiden_cuffs_color_psd_b96ac1c.vtex","uri":"crystal_maiden_cuffs_color_psd_b96ac1c.png"},{"name":"crystal_maiden_cuffs_metalnessmask_tga_37c45c23.vtex","uri":"crystal_maiden_cuffs_metalnessmask_tga_37c45c23.png"},{"name":"crystal_maiden_cuffs_specmask_tga_162f8227.vtex","uri":"crystal_maiden_cuffs_specmask_tga_162f8227.png"},{"name":"crystal_maiden_cuffs_normal_psd_efb17318.vtex","uri":"crystal_maiden_cuffs_normal_psd_efb17318.png"},{"name":"crystal_maiden_cuffs_metalnessmask_tga_37c45c23_orm_616361621.png","uri":"crystal_maiden_cuffs_metalnessmask_tga_37c45c23_orm_616361621.png"}],"materials":[{"extensions":{"KHR_materials_specular":{"specularColorFactor":[0.612501,0.836007,1],"specularTexture":{"index":2}}},"extras":{"vmat":{"Name":"materials/models/heroes/crystal_maiden/crystal_maiden_cuffs.vmat","ShaderName":"hero.vfx","IntParams":{"F_ALPHA_TEST":1,"F_TRANSLUCENT":0,"F_MASKS_1":1,"F_MASKS_2":1,"F_USE_STATUS_EFFECTS_PROXY":1},"FloatParams":{"g_flAmbientScale":1,"g_flDetailBlendToFull":0,"g_flDiffuseWarpBlendToFull":0,"g_flMetalnessBlendToFull":0,"g_flSelfIllumBlendToFull":0,"g_flSpecularBlendToFull":0,"g_flEnvMapBlendToFull":0,"g_flReflectionsTintByBaseBlendToNone":0,"g_flSpecularExponentBlendToFull":0,"g_flBloomScale":0,"g_flBloomShift":0,"g_flSpecularExponent":35,"g_flSpecularScale":6,"g_flRimLightScale":1},"VectorParams":{"TextureTranslucency":[1,1,1,0],"TextureDetailMask":[0,0,0,0],"TextureDiffuseWarpMask":[0,0,0,0],"TextureRimMask":[1,1,1,0],"g_vBloomColor":[1,1,1,0],"g_vSpecularColor":[0.612501,0.836007,1,0],"g_vRimLightColor":[1,1,1,0]},"TextureParams":{"g_tColor":"materials/models/heroes/crystal_maiden/crystal_maiden_cuffs_color_psd_b96ac1c.vtex","g_tDetail2":"materials/default/default_detail2_tga_70788555.vtex","g_tFresnelWarp":"materials/default/default_fresnelwarprim_tga_d9279d65.vtex","g_tMasks1":"materials/models/heroes/crystal_maiden/crystal_maiden_cuffs_metalnessmask_tga_37c45c23.vtex","g_tMasks2":"materials/models/heroes/crystal_maiden/crystal_maiden_cuffs_specmask_tga_162f8227.vtex","g_tNormal":"materials/models/heroes/crystal_maiden/crystal_maiden_cuffs_normal_psd_efb17318.vtex"}}},"name":"crystal_maiden_cuffs","alphaMode":"MASK","emissiveTexture":{"index":1},"normalTexture":{"index":3},"occlusionTexture":{"index":4},"pbrMetallicRoughness":{"baseColorTexture":{"index":0},"metallicRoughnessTexture":{"index":4}}}],"meshes":[{"extras":{},"name":"models/heroes/crystal_maiden/crystal_maiden_cuffs.vmdl_c.crystal_maiden_cuffs_model","primitives":[{"attributes":{"POSITION":0,"TEXCOORD_0":1,"NORMAL":2,"TANGENT":3,"JOINTS_0":4,"WEIGHTS_0":5},"indices":6,"material":0}]}],"nodes":[{"name":"models/heroes/crystal_maiden/crystal_maiden_cuffs.vmdl_c","children":[1],"matrix":[0.99999994,-2.425888E-15,-6.793577E-22,0,-2.7940974E-23,0.99999994,-3.1914448E-15,0,-2.425888E-15,-2.7940974E-23,0.99999994,0,0,0,0,1]},{"name":"root_0","children":[2,21],"rotation":[-0.49999997,-0.49999997,-0.49999997,0.49999997],"translation":[5.9604645E-08,2.5304744,-0.10824773]},{"name":"spine_0","children":[3],"rotation":[2.1678064E-08,-0.7241602,-2.1678064E-08,0.6896318],"translation":[0.057461552,-8.753176E-15,0.23190793]},{"name":"spine_1","children":[4],"rotation":[1.2389663E-09,-0.047325026,2.6150607E-08,0.9988795],"translation":[0.21272112,-2.3101165E-14,3.027916E-08]},{"name":"spine_3","children":[5,13],"rotation":[-3.0404423E-10,-0.017420448,-1.7450645E-08,0.99984825],"translation":[0.2653681,-5.7752913E-15,1.9378662E-07]},{"name":"clavicle_l","children":[6],"rotation":[0.64415556,0.2916568,0.5592282,0.43273994],"translation":[0.16839224,0.03555966,-0.06808058]},{"name":"bicep_L","children":[7],"rotation":[-0.4696968,0.45338523,0.41626284,0.63289195],"translation":[0.39771628,1.1627197E-06,-2.3254395E-06]},{"name":"elbow_L","children":[8],"rotation":[-3.1082345E-07,0.18473357,3.7194575E-08,0.9827886],"translation":[0.726238,-2.3254395E-06,-2.4223328E-07]},{"name":"wrist_L","children":[9,11,12],"rotation":[0.088596955,-0.03530778,-0.061335705,0.9935502],"translation":[0.6108372,-5.4260254E-06,-3.100586E-06]},{"name":"mid_0_L","children":[10],"rotation":[0.6457126,0.1451565,0.23128526,0.71308625],"translation":[0.27119884,-0.010718919,-0.002294482]},{"name":"mid_1_L","rotation":[1.7069944E-07,0.44653803,-3.7470606E-08,0.89476466],"translation":[0.12045602,-4.796219E-06,9.398651E-06]},{"name":"index_0_L","rotation":[0.73467964,0.124584034,0.062072463,0.6639817],"translation":[0.26022616,0.0048388517,-0.07896102]},{"name":"thumb_1_L","rotation":[0.9737964,0.20686997,-0.09424556,-0.0065709483],"translation":[0.13265295,0.0854849,-0.11378961]},{"name":"clavicle_r","children":[14],"rotation":[-0.5592282,-0.4327401,0.6441555,0.29165676],"translation":[0.16839108,-0.035560295,-0.06807985]},{"name":"bicep_R","children":[15],"rotation":[-0.46969685,0.45338526,0.41626272,0.63289195],"translation":[-0.397715,-7.751465E-07,3.488159E-06]},{"name":"elbow_R","children":[16],"rotation":[-1.061349E-07,0.18473369,1.2793045E-07,0.9827886],"translation":[-0.7262386,9.689331E-07,1.0900497E-07]},{"name":"wrist_R","children":[17,19,20],"rotation":[0.088596895,-0.035307746,-0.061335705,0.9935502],"translation":[-0.61083895,2.9067992E-06,2.1316528E-06]},{"name":"mid_0_R","children":[18],"rotation":[0.6457129,0.14515655,0.23128504,0.71308607],"translation":[-0.27119952,0.010716594,0.00229361]},{"name":"mid_1_R","rotation":[-1.051261E-07,0.4465381,1.3739252E-07,0.89476466],"translation":[-0.12046086,3.2943726E-06,-6.8794247E-06]},{"name":"thumb_1_R","rotation":[0.9737964,0.20686994,-0.09424546,-0.006570986],"translation":[-0.13265508,-0.08548858,0.113788694]},{"name":"index_0_R","rotation":[0.7346799,0.12458414,0.06207227,0.6639814],"translation":[-0.2602283,-0.004843309,0.07895932]},{"name":"thigh_r","rotation":[-0.17027465,-0.68898255,-0.043509156,0.7031476],"translation":[-0.008091209,-0.2932472,-0.1841748]},{"name":"models/heroes/crystal_maiden/crystal_maiden_cuffs.vmdl_c.crystal_maiden_cuffs_model","mesh":0,"skin":0}],"samplers":[{"magFilter":9729,"minFilter":9987}],"scenes":[{"name":"crystal_maiden_cuffs.vmdl_c","nodes":[0,22]}],"skins":[{"inverseBindMatrices":7,"joints":[1,2,3,4,5,13,6,14,7,15,8,16,9,17,11,12,10,18,19,20,21]}],"textures":[{"name":"crystal_maiden_cuffs_color_psd_b96ac1c.vtex","sampler":0,"source":0},{"name":"crystal_maiden_cuffs_metalnessmask_tga_37c45c23.vtex","sampler":0,"source":1},{"name":"crystal_maiden_cuffs_specmask_tga_162f8227.vtex","sampler":0,"source":2},{"name":"crystal_maiden_cuffs_normal_psd_efb17318.vtex","sampler":0,"source":3},{"name":"crystal_maiden_cuffs_metalnessmask_tga_37c45c23_orm_616361621.png","sampler":0,"source":4}]}