{"asset":{"copyright":"","generator":"Source 2 Viewer 20.0.0.0 - https://valveresourceformat.github.io","version":"2.0"},"accessors":[{"bufferView":0,"componentType":5126,"count":11696,"max":[11.33729076385498,51.13316345214844,144.73019409179688],"min":[-28.29552459716797,-51.13311767578125,-6.863376617431641],"type":"VEC3"},{"bufferView":1,"componentType":5126,"count":11696,"max":[1,1,1],"min":[-1,-1,-1],"type":"VEC3"},{"bufferView":2,"componentType":5126,"count":11696,"max":[1,1],"min":[0,0],"type":"VEC2"},{"bufferView":3,"componentType":5125,"count":61440,"type":"SCALAR"}],"bufferViews":[{"buffer":0,"byteLength":140352,"byteOffset":245760,"target":34962},{"buffer":0,"byteLength":140352,"byteOffset":386112,"target":34962},{"buffer":0,"byteLength":93568,"byteOffset":526464,"target":34962},{"buffer":0,"byteLength":245760,"target":34963}],"buffers":[{"byteLength":620032,"uri":"crystal_maiden_physics.bin"}],"images":[{"name":"physics_default","uri":"physics_default.png"}],"materials":[{"name":"physics_group_material","pbrMetallicRoughness":{"baseColorFactor":[0.5,0.5,1,1],"baseColorTexture":{"index":0},"metallicFactor":0}}],"meshes":[{"name":"physics_group","primitives":[{"attributes":{"POSITION":0,"NORMAL":1,"TEXCOORD_0":2},"indices":3,"material":0}]}],"nodes":[{"extras":{"SurfaceProperty":"default","InteractAs":[]},"name":"physics_group","matrix":[3.027916E-09,0,0.025399996,0,0.025399996,3.027916E-09,0,0,0,0.025399996,3.027916E-09,0,0,0,0,1],"mesh":0}],"samplers":[{"magFilter":9729,"minFilter":9987}],"scenes":[{"name":"crystal_maiden.vmdl_c","nodes":[0]}],"textures":[{"name":"physics_default","sampler":0,"source":0}]}