{"asset":{"copyright":"","generator":"Source 2 Viewer 20.0.0.0 - https://valveresourceformat.github.io","version":"2.0"},"extensionsUsed":["KHR_materials_specular"],"accessors":[{"bufferView":0,"componentType":5126,"count":704,"max":[0.7542940974235535,3.943727970123291,0.16795414686203003],"min":[-0.7542949914932251,2.0528109073638916,-0.7722146511077881],"type":"VEC3"},{"bufferView":1,"componentType":5126,"count":704,"max":[0.9557786583900452,0.9758903980255127],"min":[0.029145177453756332,0.020203253254294395],"type":"VEC2"},{"bufferView":2,"componentType":5126,"count":704,"max":[0.9974827766418457,0.9974827170372009,0.9944269061088562],"min":[-0.9985665678977966,-0.9977095127105713,-0.9998697638511658],"type":"VEC3"},{"bufferView":3,"componentType":5126,"count":704,"type":"VEC4"},{"bufferView":4,"componentType":5123,"count":704,"type":"VEC4"},{"bufferView":5,"componentType":5126,"count":704,"type":"VEC4"},{"bufferView":6,"componentType":5125,"count":3012,"type":"SCALAR"},{"name":"Bind Matrices","bufferView":7,"componentType":5126,"count":15,"type":"MAT4"}],"bufferViews":[{"buffer":0,"byteLength":8448,"byteOffset":34576,"target":34962},{"buffer":0,"byteLength":5632,"byteOffset":51472,"target":34962},{"buffer":0,"byteLength":8448,"byteOffset":43024,"target":34962},{"buffer":0,"byteLength":11264,"byteOffset":12048,"target":34962},{"buffer":0,"byteLength":5632,"byteOffset":57104,"byteStride":8,"target":34962},{"buffer":0,"byteLength":11264,"byteOffset":23312,"target":34962},{"buffer":0,"byteLength":12048,"target":34963},{"buffer":0,"byteLength":960,"byteOffset":62736}],"buffers":[{"byteLength":63696,"uri":"crystal_maiden_shoulders.bin"}],"images":[{"name":"crystal_maiden_shoulder_color_psd_592a78cc.vtex","uri":"crystal_maiden_shoulder_color_psd_592a78cc.png"},{"name":"crystal_maiden_shoulder_detailmask_tga_5c67dcc1.vtex","uri":"crystal_maiden_shoulder_detailmask_tga_5c67dcc1.png"},{"name":"crystal_maiden_shoulder_specmask_tga_152a1186.vtex","uri":"crystal_maiden_shoulder_specmask_tga_152a1186.png"},{"name":"crystal_maiden_shoulder_normal_psd_f93312b0.vtex","uri":"crystal_maiden_shoulder_normal_psd_f93312b0.png"},{"name":"crystal_maiden_shoulder_detailmask_tga_5c67dcc1_orm_830670302.png","uri":"crystal_maiden_shoulder_detailmask_tga_5c67dcc1_orm_830670302.png"}],"materials":[{"extensions":{"KHR_materials_specular":{"specularColorFactor":[0.612501,0.836007,1],"specularTexture":{"index":2}}},"extras":{"vmat":{"Name":"materials/models/heroes/crystal_maiden/crystal_maiden_shoulders.vmat","ShaderName":"hero.vfx","IntParams":{"F_ALPHA_TEST":1,"F_TRANSLUCENT":0,"F_MASKS_1":1,"F_MASKS_2":1,"F_USE_STATUS_EFFECTS_PROXY":1},"FloatParams":{"g_flAmbientScale":1,"g_flDetailBlendToFull":0,"g_flDiffuseWarpBlendToFull":0,"g_flMetalnessBlendToFull":0,"g_flSelfIllumBlendToFull":0,"g_flSpecularBlendToFull":0,"g_flEnvMapBlendToFull":0,"g_flReflectionsTintByBaseBlendToNone":0,"g_flSpecularExponentBlendToFull":0,"g_flBloomScale":0,"g_flBloomShift":0,"g_flSpecularExponent":35,"g_flSpecularScale":6,"g_flRimLightScale":1},"VectorParams":{"TextureTranslucency":[1,1,1,0],"g_vBloomColor":[1,1,1,0],"g_vSpecularColor":[0.612501,0.836007,1,0],"g_vRimLightColor":[1,1,1,0]},"TextureParams":{"g_tColor":"materials/models/heroes/crystal_maiden/crystal_maiden_shoulder_color_psd_592a78cc.vtex","g_tDetail2":"materials/default/default_detail2_tga_70788555.vtex","g_tFresnelWarp":"materials/default/default_fresnelwarprim_tga_d9279d65.vtex","g_tMasks1":"materials/models/heroes/crystal_maiden/crystal_maiden_shoulder_detailmask_tga_5c67dcc1.vtex","g_tMasks2":"materials/models/heroes/crystal_maiden/crystal_maiden_shoulder_specmask_tga_152a1186.vtex","g_tNormal":"materials/models/heroes/crystal_maiden/crystal_maiden_shoulder_normal_psd_f93312b0.vtex"}}},"name":"crystal_maiden_shoulders","alphaMode":"MASK","emissiveTexture":{"index":1},"normalTexture":{"index":3},"occlusionTexture":{"index":4},"pbrMetallicRoughness":{"baseColorTexture":{"index":0},"metallicRoughnessTexture":{"index":4}}}],"meshes":[{"extras":{},"name":"models/heroes/crystal_maiden/crystal_maiden_shoulders.vmdl_c.crystal_maiden_shoulders_model","primitives":[{"attributes":{"POSITION":0,"TEXCOORD_0":1,"NORMAL":2,"TANGENT":3,"JOINTS_0":4,"WEIGHTS_0":5},"indices":6,"material":0}]}],"nodes":[{"name":"models/heroes/crystal_maiden/crystal_maiden_shoulders.vmdl_c","children":[1],"matrix":[0.99999994,-2.425888E-15,-6.793577E-22,0,-2.7940974E-23,0.99999994,-3.1914448E-15,0,-2.425888E-15,-2.7940974E-23,0.99999994,0,0,0,0,1]},{"name":"root_0","children":[2],"rotation":[-0.49999997,-0.49999997,-0.49999997,0.49999997],"translation":[5.9604645E-08,2.5304744,-0.10824773]},{"name":"spine_0","children":[3],"rotation":[2.1678064E-08,-0.7241602,-2.1678064E-08,0.6896318],"translation":[0.057461552,-8.753176E-15,0.23190793]},{"name":"spine_1","children":[4],"rotation":[1.2389663E-09,-0.047325026,2.6150607E-08,0.9988795],"translation":[0.21272112,-2.3101165E-14,3.027916E-08]},{"name":"spine_3","children":[5,7,9,11,13,15],"rotation":[-3.0404423E-10,-0.017420448,-1.7450645E-08,0.99984825],"translation":[0.2653681,-5.7752913E-15,1.9378662E-07]},{"name":"clavicle_L","children":[6],"rotation":[0.64415514,0.29165637,0.55922854,0.43274054],"translation":[0.16839302,0.035559904,-0.06808073]},{"name":"shoulder_L","rotation":[0.7575749,-0.11128444,-0.24029793,0.59661794],"translation":[0.42501438,-0.037786454,0.06532237]},{"name":"clavicle_R","children":[8],"rotation":[-0.55922806,-0.43273976,0.64415574,0.29165697],"translation":[0.1683934,-0.035560053,-0.068080634]},{"name":"shoulder_R","rotation":[-0.5906283,0.207304,-0.05103352,0.7781894],"translation":[-0.43034276,-0.013751099,-0.060907133]},{"name":"Cape_R0C1","children":[10],"rotation":[0.03928599,0.7012032,0.7060146,-0.09118176],"translation":[0.05724825,-0.16509964,0.3793802]},{"name":"Cape_R1C1","rotation":[-5.261856E-08,3.3386571E-09,0.03257636,0.9994693],"translation":[0.78299075,3.8757324E-07,4.8446655E-08]},{"name":"tie_back0","children":[12],"rotation":[0.1150944,0.6976772,0.69767696,-0.115094654],"translation":[0.21593778,3.7568075E-08,0.43083507]},{"name":"tie_back1","rotation":[1.1573515E-08,1.1112586E-09,0.010029243,0.9999497],"translation":[0.53464913,0,4.0193253E-09]},{"name":"cape_r0c0","children":[14],"rotation":[0.093232125,0.7061264,0.70093364,-0.03722164],"translation":[0.05724437,0.1650999,0.37938058]},{"name":"Cape_R1C0","rotation":[6.243174E-08,-3.791018E-08,0.03257638,0.9994693],"translation":[0.7829892,7.266998E-07,3.391266E-07]},{"name":"breasts","rotation":[0.7042967,0.7042967,-0.06297737,-0.062977314],"translation":[-0.007154602,1.6188763E-07,-0.2069661]},{"name":"models/heroes/crystal_maiden/crystal_maiden_shoulders.vmdl_c.crystal_maiden_shoulders_model","mesh":0,"skin":0}],"samplers":[{"magFilter":9729,"minFilter":9987}],"scenes":[{"name":"crystal_maiden_shoulders.vmdl_c","nodes":[0,16]}],"skins":[{"inverseBindMatrices":7,"joints":[1,2,3,4,5,7,9,11,6,8,12,13,10,14,15]}],"textures":[{"name":"crystal_maiden_shoulder_color_psd_592a78cc.vtex","sampler":0,"source":0},{"name":"crystal_maiden_shoulder_detailmask_tga_5c67dcc1.vtex","sampler":0,"source":1},{"name":"crystal_maiden_shoulder_specmask_tga_152a1186.vtex","sampler":0,"source":2},{"name":"crystal_maiden_shoulder_normal_psd_f93312b0.vtex","sampler":0,"source":3},{"name":"crystal_maiden_shoulder_detailmask_tga_5c67dcc1_orm_830670302.png","sampler":0,"source":4}]}