{"asset":{"copyright":"","generator":"Source 2 Viewer 20.0.0.0 - https://valveresourceformat.github.io","version":"2.0"},"extensionsUsed":["KHR_materials_specular"],"accessors":[{"bufferView":0,"componentType":5126,"count":460,"max":[0.5165004134178162,4.442408561706543,0.15749454498291016],"min":[-0.5165010094642639,3.4818837642669678,-0.62744140625],"type":"VEC3"},{"bufferView":1,"componentType":5126,"count":460,"max":[0.9857783913612366,0.9862361550331116],"min":[0.013519699685275555,0.013000885024666786],"type":"VEC2"},{"bufferView":2,"componentType":5126,"count":460,"max":[0.9930429458618164,0.9783493876457214,0.9963045716285706],"min":[-0.9930428862571716,-0.9881114959716797,-0.9977095127105713],"type":"VEC3"},{"bufferView":3,"componentType":5126,"count":460,"type":"VEC4"},{"bufferView":4,"componentType":5123,"count":460,"type":"VEC4"},{"bufferView":5,"componentType":5126,"count":460,"type":"VEC4"},{"bufferView":6,"componentType":5125,"count":2079,"type":"SCALAR"},{"name":"Bind Matrices","bufferView":7,"componentType":5126,"count":11,"type":"MAT4"}],"bufferViews":[{"buffer":0,"byteLength":5520,"byteOffset":23036,"target":34962},{"buffer":0,"byteLength":3680,"byteOffset":34076,"target":34962},{"buffer":0,"byteLength":5520,"byteOffset":28556,"target":34962},{"buffer":0,"byteLength":7360,"byteOffset":8316,"target":34962},{"buffer":0,"byteLength":3680,"byteOffset":37756,"byteStride":8,"target":34962},{"buffer":0,"byteLength":7360,"byteOffset":15676,"target":34962},{"buffer":0,"byteLength":8316,"target":34963},{"buffer":0,"byteLength":704,"byteOffset":41436}],"buffers":[{"byteLength":42140,"uri":"head_item.bin"}],"images":[{"name":"head_item_color_tga_71ffe59e.vtex","uri":"head_item_color_tga_71ffe59e.png"},{"name":"head_item_detailmask_tga_efbae5fb.vtex","uri":"head_item_detailmask_tga_efbae5fb.png"},{"name":"head_item_specmask_tga_a9418858.vtex","uri":"head_item_specmask_tga_a9418858.png"},{"name":"head_item_normal_tga_7dbe211c.vtex","uri":"head_item_normal_tga_7dbe211c.png"},{"name":"head_item_detailmask_tga_efbae5fb_orm_966303512.png","uri":"head_item_detailmask_tga_efbae5fb_orm_966303512.png"}],"materials":[{"extensions":{"KHR_materials_specular":{"specularColorFactor":[0.612501,0.836007,1],"specularTexture":{"index":2}}},"extras":{"vmat":{"Name":"materials/models/heroes/crystal_maiden/head_item_color.vmat","ShaderName":"hero.vfx","IntParams":{"F_ALPHA_TEST":1,"F_TRANSLUCENT":0,"F_MASKS_1":1,"F_MASKS_2":1,"F_USE_STATUS_EFFECTS_PROXY":1},"FloatParams":{"g_flAmbientScale":1,"g_flDetailBlendToFull":0,"g_flDiffuseWarpBlendToFull":0,"g_flMetalnessBlendToFull":0,"g_flSelfIllumBlendToFull":0,"g_flSpecularBlendToFull":0,"g_flEnvMapBlendToFull":0,"g_flReflectionsTintByBaseBlendToNone":0,"g_flSpecularExponentBlendToFull":0,"g_flBloomScale":0,"g_flBloomShift":0,"g_flSpecularExponent":35,"g_flSpecularScale":6,"g_flRimLightScale":1},"VectorParams":{"TextureTranslucency":[1,1,1,0],"g_vBloomColor":[1,1,1,0],"g_vSpecularColor":[0.612501,0.836007,1,0],"g_vRimLightColor":[1,1,1,0]},"TextureParams":{"g_tColor":"materials/models/heroes/crystal_maiden/head_item_color_tga_71ffe59e.vtex","g_tDetail2":"materials/default/default_detail2_tga_70788555.vtex","g_tFresnelWarp":"materials/default/default_fresnelwarprim_tga_d9279d65.vtex","g_tMasks1":"materials/models/heroes/crystal_maiden/head_item_detailmask_tga_efbae5fb.vtex","g_tMasks2":"materials/models/heroes/crystal_maiden/head_item_specmask_tga_a9418858.vtex","g_tNormal":"materials/models/heroes/crystal_maiden/head_item_normal_tga_7dbe211c.vtex"}}},"name":"head_item_color","alphaMode":"MASK","emissiveTexture":{"index":1},"normalTexture":{"index":3},"occlusionTexture":{"index":4},"pbrMetallicRoughness":{"baseColorTexture":{"index":0},"metallicRoughnessTexture":{"index":4}}}],"meshes":[{"extras":{},"name":"models/heroes/crystal_maiden/head_item.vmdl_c.head_item_model","primitives":[{"attributes":{"POSITION":0,"TEXCOORD_0":1,"NORMAL":2,"TANGENT":3,"JOINTS_0":4,"WEIGHTS_0":5},"indices":6,"material":0}]}],"nodes":[{"name":"models/heroes/crystal_maiden/head_item.vmdl_c","children":[1],"matrix":[0.99999994,-2.425888E-15,-6.793577E-22,0,-2.7940974E-23,0.99999994,-3.1914448E-15,0,-2.425888E-15,-2.7940974E-23,0.99999994,0,0,0,0,1]},{"name":"root_0","children":[2],"rotation":[-0.49999997,-0.49999997,-0.49999997,0.49999997],"translation":[5.9604645E-08,2.5304744,-0.10824773]},{"name":"spine_0","children":[3],"rotation":[2.1678064E-08,-0.7241602,-2.1678064E-08,0.6896318],"translation":[0.057461552,-8.753176E-15,0.23190793]},{"name":"spine_1","children":[4],"rotation":[1.2389663E-09,-0.047325026,2.6150607E-08,0.9988795],"translation":[0.21272112,-2.3101165E-14,3.027916E-08]},{"name":"spine_3","children":[5,7,9,11],"rotation":[-3.0404423E-10,-0.017420448,-1.7450645E-08,0.99984825],"translation":[0.2653681,-5.7752913E-15,1.9378662E-07]},{"name":"Head_0","children":[6],"rotation":[-6.33878E-08,0.09947556,3.2126707E-08,0.99504],"translation":[0.41194868,5.07999E-08,-1.4533997E-07]},{"name":"Head_1","rotation":[0.0015405501,0.69967085,0.0015733687,0.714462],"translation":[0.32901713,1.3137107E-08,1.2111664E-07]},{"name":"clavicle_L","children":[8],"rotation":[0.64415514,0.29165637,0.55922854,0.43274054],"translation":[0.16839302,0.035559904,-0.06808073]},{"name":"shoulder_L","rotation":[0.7575749,-0.11128444,-0.24029793,0.59661794],"translation":[0.42501438,-0.037786454,0.06532237]},{"name":"clavicle_R","children":[10],"rotation":[-0.55922806,-0.43273976,0.64415574,0.29165697],"translation":[0.1683934,-0.035560053,-0.068080634]},{"name":"shoulder_R","rotation":[-0.5906283,0.207304,-0.05103352,0.7781894],"translation":[-0.43034276,-0.013751099,-0.060907133]},{"name":"Cape_R0C0","rotation":[0.09323195,0.70612615,0.7009339,-0.037221417],"translation":[0.057249025,0.1650999,0.37938067]},{"name":"models/heroes/crystal_maiden/head_item.vmdl_c.head_item_model","mesh":0,"skin":0}],"samplers":[{"magFilter":9729,"minFilter":9987}],"scenes":[{"name":"head_item.vmdl_c","nodes":[0,12]}],"skins":[{"inverseBindMatrices":7,"joints":[1,2,3,4,5,7,9,6,11,8,10]}],"textures":[{"name":"head_item_color_tga_71ffe59e.vtex","sampler":0,"source":0},{"name":"head_item_detailmask_tga_efbae5fb.vtex","sampler":0,"source":1},{"name":"head_item_specmask_tga_a9418858.vtex","sampler":0,"source":2},{"name":"head_item_normal_tga_7dbe211c.vtex","sampler":0,"source":3},{"name":"head_item_detailmask_tga_efbae5fb_orm_966303512.png","sampler":0,"source":4}]}