{"asset":{"copyright":"","generator":"Source 2 Viewer 20.0.0.0 - https://valveresourceformat.github.io","version":"2.0"},"accessors":[{"bufferView":0,"componentType":5126,"count":637,"max":[2.078294038772583,5.657809734344482,2.152773857116699],"min":[-2.0681304931640625,-0.027235722169280052,-2.1274254322052],"type":"VEC3"},{"bufferView":1,"componentType":5126,"count":637,"max":[1.03515625,0.998046875],"min":[-0.0102386474609375,0.0009455680847167969],"type":"VEC2"},{"bufferView":2,"componentType":5126,"count":637,"max":[0.9941522479057312,0.9998699426651001,0.9993062019348145],"min":[-0.9993059635162354,-0.7693090438842773,-0.9881113767623901],"type":"VEC3"},{"bufferView":3,"componentType":5126,"count":637,"type":"VEC4"},{"bufferView":4,"componentType":5123,"count":637,"type":"VEC4"},{"bufferView":5,"componentType":5126,"count":637,"type":"VEC4"},{"bufferView":6,"componentType":5125,"count":1830,"type":"SCALAR"},{"name":"Bind Matrices","bufferView":7,"componentType":5126,"count":1,"type":"MAT4"}],"bufferViews":[{"buffer":0,"byteLength":7644,"byteOffset":20384,"target":34962},{"buffer":0,"byteLength":5096,"byteOffset":42992,"target":34962},{"buffer":0,"byteLength":7644,"byteOffset":28028,"target":34962},{"buffer":0,"byteLength":10192,"target":34962},{"buffer":0,"byteLength":5096,"byteOffset":48088,"byteStride":8,"target":34962},{"buffer":0,"byteLength":10192,"byteOffset":10192,"target":34962},{"buffer":0,"byteLength":7320,"byteOffset":35672,"target":34963},{"buffer":0,"byteLength":64,"byteOffset":53184}],"buffers":[{"byteLength":53248,"uri":"tree_oak_00.bin"}],"images":[{"name":"tree_oak_leaves_00_color_psd_c6c1c88b.vtex","uri":"tree_oak_leaves_00_color_psd_c6c1c88b.png"},{"name":"tree_oak_leaves_00_normal_psd_9cd1e3a9.vtex","uri":"tree_oak_leaves_00_normal_psd_9cd1e3a9.png"},{"name":"tree_oak_leaves_00_refl_psd_e2ae2f2c.vtex","uri":"tree_oak_leaves_00_refl_psd_e2ae2f2c.png"}],"materials":[{"extras":{"vmat":{"Name":"materials/models/props_tree/tree_oak_leaves_00.vmat","ShaderName":"global_lit_simple.vfx","IntParams":{"F_ENABLE_WIND":1,"F_NORMAL_MAP":1,"F_SPECULAR":1,"F_TINT_MASK":1,"F_ALPHA_TEST":1},"FloatParams":{"g_flBumpStrength":1,"g_flSpecularBloom":0.5,"g_flSpecularIntensity":0.5,"g_flAlphaTestReference":0.7,"g_flWindFlexibility":0.3,"g_flWindHighFrequencyEffects":1,"g_flWindLowFrequencyEffects":0.5,"g_flWindSpeedMultiplier":0.5},"VectorParams":{"g_vColorTint":[1,1,1,0],"g_vColorTint2":[1,1,1,0],"g_vTexCoordOffset":[0,0,0,0],"g_vTexCoordScale":[1,1,0,0],"TextureSelfIllumMask":[0,0,0,0],"TextureBloom":[0,0,0,0],"TextureWindMaskLow":[1,1,1,0]},"TextureParams":{"g_tWindMask":"materials/models/props_tree/tree_wind_00_mask_psd_6dca5082.vtex","g_tWindNoise":"materials/dev/two_channel_noise_psd_93f8d443.vtex","g_tColor":"materials/models/props_tree/tree_oak_leaves_00_color_psd_c6c1c88b.vtex","g_tTintMask":"materials/models/props_tree/tree_00_mask_psd_52cca3c8.vtex","g_tNormal":"materials/models/props_tree/tree_oak_leaves_00_normal_psd_9cd1e3a9.vtex","g_tSpecular":"materials/models/props_tree/tree_oak_leaves_00_refl_psd_e2ae2f2c.vtex"}}},"name":"tree_oak_leaves_00","alphaCutoff":0.699999988079071,"alphaMode":"MASK","emissiveTexture":{"index":2},"normalTexture":{"index":1},"pbrMetallicRoughness":{"baseColorTexture":{"index":0},"metallicFactor":0}}],"meshes":[{"extras":{},"name":"models/props_tree/tree_oak_00.vmdl_c.tree_oak_00_model","primitives":[{"attributes":{"POSITION":0,"TEXCOORD_0":1,"NORMAL":2,"TANGENT":3,"JOINTS_0":4,"WEIGHTS_0":5},"indices":6,"material":0}]}],"nodes":[{"name":"models/props_tree/tree_oak_00.vmdl_c","children":[1],"matrix":[0.99999994,-2.425888E-15,-6.793577E-22,0,-2.7940974E-23,0.99999994,-3.1914448E-15,0,-2.425888E-15,-2.7940974E-23,0.99999994,0,0,0,0,1]},{"name":"joint1","rotation":[0,0,0,0.99999994]},{"name":"models/props_tree/tree_oak_00.vmdl_c.tree_oak_00_model","mesh":0,"skin":0}],"samplers":[{"magFilter":9729,"minFilter":9987}],"scenes":[{"name":"tree_oak_00.vmdl_c","nodes":[0,2]}],"skins":[{"inverseBindMatrices":7,"joints":[1]}],"textures":[{"name":"tree_oak_leaves_00_color_psd_c6c1c88b.vtex","sampler":0,"source":0},{"name":"tree_oak_leaves_00_normal_psd_9cd1e3a9.vtex","sampler":0,"source":1},{"name":"tree_oak_leaves_00_refl_psd_e2ae2f2c.vtex","sampler":0,"source":2}]}