{"asset":{"copyright":"","generator":"Source 2 Viewer 20.0.0.0 - https://valveresourceformat.github.io","version":"2.0"},"accessors":[{"bufferView":0,"componentType":5126,"count":474,"max":[247.6456756591797,285.7728576660156,695.9295654296875],"min":[-290.4631042480469,-288.96466064453125,-0.72625732421875],"type":"VEC3"},{"bufferView":1,"componentType":5126,"count":474,"max":[0.9838975071907043,0.9350571036338806,0.9768276810646057],"min":[-0.92819744348526,-0.9875828623771667,-0.9999942183494568],"type":"VEC3"},{"bufferView":2,"componentType":5126,"count":474,"max":[13.305352210998535,12.781403541564941],"min":[-4.4537129402160645,-4.928802490234375],"type":"VEC2"},{"bufferView":3,"componentType":5125,"count":474,"type":"SCALAR"}],"bufferViews":[{"buffer":0,"byteLength":5688,"target":34962},{"buffer":0,"byteLength":5688,"byteOffset":5688,"target":34962},{"buffer":0,"byteLength":3792,"byteOffset":11376,"target":34962},{"buffer":0,"byteLength":1896,"byteOffset":15168,"target":34963}],"buffers":[{"byteLength":17064,"uri":"tree_oak_01_inspector_physics.bin"}],"images":[{"name":"physics_default","uri":"physics_default.png"}],"materials":[{"name":"physics_group_material","pbrMetallicRoughness":{"baseColorFactor":[0.5,0.5,1,1],"baseColorTexture":{"index":0},"metallicFactor":0}}],"meshes":[{"name":"physics_group","primitives":[{"attributes":{"POSITION":0,"NORMAL":1,"TEXCOORD_0":2},"indices":3,"material":0}]}],"nodes":[{"extras":{"SurfaceProperty":"default","InteractAs":[]},"name":"physics_group","matrix":[3.027916E-09,0,0.025399996,0,0.025399996,3.027916E-09,0,0,0,0.025399996,3.027916E-09,0,0,0,0,1],"mesh":0}],"samplers":[{"magFilter":9729,"minFilter":9987}],"scenes":[{"name":"tree_oak_01_inspector.vmdl_c","nodes":[0]}],"textures":[{"name":"physics_default","sampler":0,"source":0}]}