{"asset":{"copyright":"","generator":"Source 2 Viewer 20.0.0.0 - https://valveresourceformat.github.io","version":"2.0"},"accessors":[{"bufferView":0,"componentType":5126,"count":696,"max":[3.2007627487182617,4.677577018737793,3.381101608276367],"min":[-3.6071627140045166,-0.017606107518076897,-3.6708428859710693],"type":"VEC3"},{"bufferView":1,"componentType":5126,"count":696,"max":[0.9894101023674011,0.9975585341453552],"min":[0.004425183869898319,0.00872829370200634],"type":"VEC2"},{"bufferView":2,"componentType":5126,"count":696,"max":[0.9980732798576355,0.9997312426567078,0.9988527297973633],"min":[-0.9997478127479553,-0.47750213742256165,-0.9960224628448486],"type":"VEC3"},{"bufferView":3,"componentType":5126,"count":696,"type":"VEC4"},{"bufferView":4,"componentType":5125,"count":1707,"type":"SCALAR"}],"bufferViews":[{"buffer":0,"byteLength":8352,"byteOffset":11136,"target":34962},{"buffer":0,"byteLength":5568,"byteOffset":34668,"target":34962},{"buffer":0,"byteLength":8352,"byteOffset":19488,"target":34962},{"buffer":0,"byteLength":11136,"target":34962},{"buffer":0,"byteLength":6828,"byteOffset":27840,"target":34963}],"buffers":[{"byteLength":40236,"uri":"tree_stump001.bin"}],"images":[{"name":"tree_stump001_color_psd_69850232.vtex","uri":"tree_stump001_color_psd_69850232.png"}],"materials":[{"extras":{"vmat":{"Name":"materials/models/props_tree/tree_stump001.vmat","ShaderName":"global_lit_simple.vfx","IntParams":{},"FloatParams":{},"VectorParams":{},"TextureParams":{"g_tColor":"materials/models/props_tree/tree_stump001_color_psd_69850232.vtex"}}},"name":"tree_stump001","pbrMetallicRoughness":{"baseColorTexture":{"index":0},"metallicFactor":0}}],"meshes":[{"extras":{},"name":"models/props_tree/tree_stump001.vmdl_c.tree_stump001_model","primitives":[{"attributes":{"POSITION":0,"TEXCOORD_0":1,"NORMAL":2,"TANGENT":3},"indices":4,"material":0}]}],"nodes":[{"name":"models/props_tree/tree_stump001.vmdl_c.tree_stump001_model","matrix":[0.99999994,-2.425888E-15,-6.793577E-22,0,-2.7940974E-23,0.99999994,-3.1914448E-15,0,-2.425888E-15,-2.7940974E-23,0.99999994,0,0,0,0,1],"mesh":0}],"samplers":[{"magFilter":9729,"minFilter":9987}],"scenes":[{"name":"tree_stump001.vmdl_c","nodes":[0]}],"textures":[{"name":"tree_stump001_color_psd_69850232.vtex","sampler":0,"source":0}]}