{"asset":{"copyright":"","generator":"Source 2 Viewer 20.0.0.0 - https://valveresourceformat.github.io","version":"2.0"},"accessors":[{"bufferView":0,"componentType":5126,"count":1339,"max":[7.019866466522217,17.671279907226562,6.191636562347412],"min":[-7.26312255859375,-0.017466044053435326,-7.40799617767334],"type":"VEC3"},{"bufferView":1,"componentType":5126,"count":1339,"max":[1.03515625,0.998046875],"min":[-0.0102386474609375,0.0015058517456054688],"type":"VEC2"},{"bufferView":2,"componentType":5126,"count":1339,"max":[0.9998698830604553,0.9999998807907104,0.9947521090507507],"min":[-0.9974826574325562,-0.9969362020492554,-0.9997478723526001],"type":"VEC3"},{"bufferView":3,"componentType":5126,"count":1339,"type":"VEC4"},{"bufferView":4,"componentType":5125,"count":2985,"type":"SCALAR"}],"bufferViews":[{"buffer":0,"byteLength":16068,"byteOffset":21424,"target":34962},{"buffer":0,"byteLength":10712,"byteOffset":65500,"target":34962},{"buffer":0,"byteLength":16068,"byteOffset":37492,"target":34962},{"buffer":0,"byteLength":21424,"target":34962},{"buffer":0,"byteLength":11940,"byteOffset":53560,"target":34963}],"buffers":[{"byteLength":76212,"uri":"tree_oak_01_inspector.bin"}],"images":[{"name":"tree_oak_leaves_00_color_psd_c6c1c88b.vtex","uri":"tree_oak_leaves_00_color_psd_c6c1c88b.png"},{"name":"tree_oak_leaves_00_normal_psd_9cd1e3a9.vtex","uri":"tree_oak_leaves_00_normal_psd_9cd1e3a9.png"},{"name":"tree_oak_leaves_00_refl_psd_e2ae2f2c.vtex","uri":"tree_oak_leaves_00_refl_psd_e2ae2f2c.png"}],"materials":[{"extras":{"vmat":{"Name":"materials/models/props_tree/tree_oak_leaves_00.vmat","ShaderName":"global_lit_simple.vfx","IntParams":{"F_ENABLE_WIND":1,"F_NORMAL_MAP":1,"F_SPECULAR":1,"F_TINT_MASK":1,"F_ALPHA_TEST":1},"FloatParams":{"g_flBumpStrength":1,"g_flSpecularBloom":0.5,"g_flSpecularIntensity":0.5,"g_flAlphaTestReference":0.7,"g_flWindFlexibility":0.3,"g_flWindHighFrequencyEffects":1,"g_flWindLowFrequencyEffects":0.5,"g_flWindSpeedMultiplier":0.5},"VectorParams":{"g_vColorTint":[1,1,1,0],"g_vColorTint2":[1,1,1,0],"g_vTexCoordOffset":[0,0,0,0],"g_vTexCoordScale":[1,1,0,0],"TextureSelfIllumMask":[0,0,0,0],"TextureBloom":[0,0,0,0],"TextureWindMaskLow":[1,1,1,0]},"TextureParams":{"g_tWindMask":"materials/models/props_tree/tree_wind_00_mask_psd_6dca5082.vtex","g_tWindNoise":"materials/dev/two_channel_noise_psd_93f8d443.vtex","g_tColor":"materials/models/props_tree/tree_oak_leaves_00_color_psd_c6c1c88b.vtex","g_tTintMask":"materials/models/props_tree/tree_00_mask_psd_52cca3c8.vtex","g_tNormal":"materials/models/props_tree/tree_oak_leaves_00_normal_psd_9cd1e3a9.vtex","g_tSpecular":"materials/models/props_tree/tree_oak_leaves_00_refl_psd_e2ae2f2c.vtex"}}},"name":"tree_oak_leaves_00","alphaCutoff":0.699999988079071,"alphaMode":"MASK","emissiveTexture":{"index":2},"normalTexture":{"index":1},"pbrMetallicRoughness":{"baseColorTexture":{"index":0},"metallicFactor":0}}],"meshes":[{"extras":{},"name":"models/props_tree/tree_oak_01_inspector.vmdl_c.tree_oak_01_inspector","primitives":[{"attributes":{"POSITION":0,"TEXCOORD_0":1,"NORMAL":2,"TANGENT":3},"indices":4,"material":0}]}],"nodes":[{"name":"models/props_tree/tree_oak_01_inspector.vmdl_c.tree_oak_01_inspector","matrix":[0.99999994,-2.425888E-15,-6.793577E-22,0,-2.7940974E-23,0.99999994,-3.1914448E-15,0,-2.425888E-15,-2.7940974E-23,0.99999994,0,0,0,0,1],"mesh":0}],"samplers":[{"magFilter":9729,"minFilter":9987}],"scenes":[{"name":"tree_oak_01_inspector.vmdl_c","nodes":[0]}],"textures":[{"name":"tree_oak_leaves_00_color_psd_c6c1c88b.vtex","sampler":0,"source":0},{"name":"tree_oak_leaves_00_normal_psd_9cd1e3a9.vtex","sampler":0,"source":1},{"name":"tree_oak_leaves_00_refl_psd_e2ae2f2c.vtex","sampler":0,"source":2}]}