{"asset":{"copyright":"","generator":"Source 2 Viewer 20.0.0.0 - https://valveresourceformat.github.io","version":"2.0"},"accessors":[{"bufferView":0,"componentType":5126,"count":756,"max":[5.293302536010742,20.434167861938477,4.335195064544678],"min":[-4.415003776550293,-0.1979164183139801,-4.857946872711182],"type":"VEC3"},{"bufferView":1,"componentType":5126,"count":756,"max":[0.9753715395927429,0.9965819120407104],"min":[-0.0072634052485227585,0.00015259254723787308],"type":"VEC2"},{"bufferView":2,"componentType":5126,"count":756,"max":[0.9985666275024414,0.8872619867324829,0.9988527297973633],"min":[-0.9980732202529907,-0.9705688953399658,-0.998752236366272],"type":"VEC3"},{"bufferView":3,"componentType":5126,"count":756,"type":"VEC4"},{"bufferView":4,"componentType":5125,"count":2016,"type":"SCALAR"}],"bufferViews":[{"buffer":0,"byteLength":9072,"byteOffset":12096,"target":34962},{"buffer":0,"byteLength":6048,"byteOffset":38304,"target":34962},{"buffer":0,"byteLength":9072,"byteOffset":21168,"target":34962},{"buffer":0,"byteLength":12096,"target":34962},{"buffer":0,"byteLength":8064,"byteOffset":30240,"target":34963}],"buffers":[{"byteLength":44352,"uri":"tree_pine_01_sfm.bin"}],"images":[{"name":"tree_pine_frond_00_color_psd_cad45fc8.vtex","uri":"tree_pine_frond_00_color_psd_cad45fc8.png"},{"name":"tree_pine_frond_00_normal_psd_b1d333a2.vtex","uri":"tree_pine_frond_00_normal_psd_b1d333a2.png"},{"name":"tree_pine_frond_00_refl_psd_8760ac51.vtex","uri":"tree_pine_frond_00_refl_psd_8760ac51.png"}],"materials":[{"extras":{"vmat":{"Name":"materials/models/props_tree/tree_pine_frond_00.vmat","ShaderName":"global_lit_simple.vfx","IntParams":{"F_ENABLE_WIND":1,"F_NORMAL_MAP":1,"F_SPECULAR":1,"F_TINT_MASK":1,"F_ALPHA_TEST":1},"FloatParams":{"g_flBumpStrength":1,"g_flSpecularBloom":0.4,"g_flSpecularIntensity":0.25,"g_flAlphaTestReference":0.7,"g_flWindFlexibility":0.3,"g_flWindHighFrequencyEffects":1.5,"g_flWindLowFrequencyEffects":0.66,"g_flWindSpeedMultiplier":0.5},"VectorParams":{"g_vColorTint":[1,1,1,0],"g_vColorTint2":[1,1,1,0],"g_vTexCoordOffset":[0,0,0,0],"g_vTexCoordScale":[1,1,0,0],"TextureSelfIllumMask":[0,0,0,0],"TextureBloom":[0,0,0,0],"TextureWindMaskLow":[1,1,1,0]},"TextureParams":{"g_tWindMask":"materials/models/props_tree/tree_pine_frond_00_wind_psd_22261904.vtex","g_tWindNoise":"materials/dev/two_channel_noise_psd_93f8d443.vtex","g_tColor":"materials/models/props_tree/tree_pine_frond_00_color_psd_cad45fc8.vtex","g_tTintMask":"materials/models/props_tree/tree_00_mask_psd_52cca3c8.vtex","g_tNormal":"materials/models/props_tree/tree_pine_frond_00_normal_psd_b1d333a2.vtex","g_tSpecular":"materials/models/props_tree/tree_pine_frond_00_refl_psd_8760ac51.vtex"}}},"name":"tree_pine_frond_00","alphaCutoff":0.699999988079071,"alphaMode":"MASK","emissiveTexture":{"index":2},"normalTexture":{"index":1},"pbrMetallicRoughness":{"baseColorTexture":{"index":0},"metallicFactor":0}}],"meshes":[{"extras":{},"name":"models/props_tree/tree_pine_01_sfm.vmdl_c.tree_pine_01_sfm_model","primitives":[{"attributes":{"POSITION":0,"TEXCOORD_0":1,"NORMAL":2,"TANGENT":3},"indices":4,"material":0}]}],"nodes":[{"name":"models/props_tree/tree_pine_01_sfm.vmdl_c.tree_pine_01_sfm_model","matrix":[0.99999994,-2.425888E-15,-6.793577E-22,0,-2.7940974E-23,0.99999994,-3.1914448E-15,0,-2.425888E-15,-2.7940974E-23,0.99999994,0,0,0,0,1],"mesh":0}],"samplers":[{"magFilter":9729,"minFilter":9987}],"scenes":[{"name":"tree_pine_01_sfm.vmdl_c","nodes":[0]}],"textures":[{"name":"tree_pine_frond_00_color_psd_cad45fc8.vtex","sampler":0,"source":0},{"name":"tree_pine_frond_00_normal_psd_b1d333a2.vtex","sampler":0,"source":1},{"name":"tree_pine_frond_00_refl_psd_8760ac51.vtex","sampler":0,"source":2}]}