{"asset":{"copyright":"","generator":"Source 2 Viewer 20.0.0.0 - https://valveresourceformat.github.io","version":"2.0"},"accessors":[{"bufferView":0,"componentType":5126,"count":453,"max":[4.562387466430664,4.072833061218262,1.3212825059890747],"min":[-4.501987934112549,-0.0009672563755884767,-1.929757833480835],"type":"VEC3"},{"bufferView":1,"componentType":5126,"count":453,"max":[0.8910183906555176,0.9984740614891052],"min":[0.13882869482040405,0.017120884731411934],"type":"VEC2"},{"bufferView":2,"componentType":5126,"count":453,"max":[0.9934531450271606,0.9999998807907104,0.9960224628448486],"min":[-0.9934531450271606,-0.7373144626617432,-0.9974827766418457],"type":"VEC3"},{"bufferView":3,"componentType":5126,"count":453,"type":"VEC4"},{"bufferView":4,"componentType":5125,"count":1143,"type":"SCALAR"}],"bufferViews":[{"buffer":0,"byteLength":5436,"byteOffset":7248,"target":34962},{"buffer":0,"byteLength":3624,"byteOffset":22692,"target":34962},{"buffer":0,"byteLength":5436,"byteOffset":12684,"target":34962},{"buffer":0,"byteLength":7248,"target":34962},{"buffer":0,"byteLength":4572,"byteOffset":18120,"target":34963}],"buffers":[{"byteLength":26316,"uri":"riveredge_rock005a.bin"}],"images":[{"name":"riveredge_rock001a_color_psd_1ddb3960.vtex","uri":"riveredge_rock001a_color_psd_1ddb3960.png"},{"name":"riveredge_rock001a_refl_tga_1c897511.vtex","uri":"riveredge_rock001a_refl_tga_1c897511.png"}],"materials":[{"extras":{"vmat":{"Name":"materials/models/props_rock/riveredge_rock001a.vmat","ShaderName":"global_lit_simple.vfx","IntParams":{"F_SPECULAR":1},"FloatParams":{"g_flSpecularIntensity":0.75,"g_flSpecularBloom":0.66},"VectorParams":{"TextureSelfIllumMask":[0,0,0,0],"TextureBloom":[0.74902,0.74902,0.74902,0]},"TextureParams":{"g_tColor":"materials/models/props_rock/riveredge_rock001a_color_psd_1ddb3960.vtex","g_tSpecular":"materials/models/props_rock/riveredge_rock001a_refl_tga_1c897511.vtex"}}},"name":"riveredge_rock001a","emissiveTexture":{"index":1},"pbrMetallicRoughness":{"baseColorTexture":{"index":0},"metallicFactor":0}}],"meshes":[{"extras":{},"name":"models/props_rock/riveredge_rock005a.vmdl_c.riveredge_rock005a_model","primitives":[{"attributes":{"POSITION":0,"TEXCOORD_0":1,"NORMAL":2,"TANGENT":3},"indices":4,"material":0}]}],"nodes":[{"name":"models/props_rock/riveredge_rock005a.vmdl_c.riveredge_rock005a_model","matrix":[0.99999994,-2.425888E-15,-6.793577E-22,0,-2.7940974E-23,0.99999994,-3.1914448E-15,0,-2.425888E-15,-2.7940974E-23,0.99999994,0,0,0,0,1],"mesh":0}],"samplers":[{"magFilter":9729,"minFilter":9987}],"scenes":[{"name":"riveredge_rock005a.vmdl_c","nodes":[0]}],"textures":[{"name":"riveredge_rock001a_color_psd_1ddb3960.vtex","sampler":0,"source":0},{"name":"riveredge_rock001a_refl_tga_1c897511.vtex","sampler":0,"source":1}]}