{"asset":{"copyright":"","generator":"Source 2 Viewer 20.0.0.0 - https://valveresourceformat.github.io","version":"2.0"},"accessors":[{"bufferView":0,"componentType":5126,"count":76,"max":[0.9930416941642761,1.013864278793335,1.3019471168518066],"min":[-1.0109915733337402,-1.2051961562065117E-07,-1.2894257307052612],"type":"VEC3"},{"bufferView":1,"componentType":5126,"count":76,"max":[0.886745810508728,0.40720847249031067],"min":[0.4943693280220032,0.0011597033590078354],"type":"VEC2"},{"bufferView":2,"componentType":5126,"count":76,"max":[0.9648460745811462,0.9944270849227905,0.9618106484413147],"min":[-0.9985665678977966,0.04130072891712189,-0.9164576530456543],"type":"VEC3"},{"bufferView":3,"componentType":5126,"count":76,"type":"VEC4"},{"bufferView":4,"componentType":5125,"count":189,"type":"SCALAR"}],"bufferViews":[{"buffer":0,"byteLength":912,"byteOffset":1216,"target":34962},{"buffer":0,"byteLength":608,"byteOffset":3796,"target":34962},{"buffer":0,"byteLength":912,"byteOffset":2128,"target":34962},{"buffer":0,"byteLength":1216,"target":34962},{"buffer":0,"byteLength":756,"byteOffset":3040,"target":34963}],"buffers":[{"byteLength":4404,"uri":"riveredge_rocks_small002.bin"}],"images":[{"name":"riveredge_rocks_small_color_psd_155150cc.vtex","uri":"riveredge_rocks_small_color_psd_155150cc.png"},{"name":"riveredge_rocks_small_refl_tga_60332080.vtex","uri":"riveredge_rocks_small_refl_tga_60332080.png"}],"materials":[{"extras":{"vmat":{"Name":"materials/models/props_rock/riveredge_rocks_small.vmat","ShaderName":"global_lit_simple.vfx","IntParams":{"F_SPECULAR":1},"FloatParams":{"g_flSpecularBloom":0,"g_flSpecularIntensity":0.3},"VectorParams":{"g_vColorTint":[1,1,1,0],"g_vTexCoordOffset":[0,0,0,0],"g_vTexCoordScale":[1,1,0,0],"TextureSelfIllumMask":[0,0,0,0]},"TextureParams":{"g_tColor":"materials/models/props_rock/riveredge_rocks_small_color_psd_155150cc.vtex","g_tSpecular":"materials/models/props_rock/riveredge_rocks_small_refl_tga_60332080.vtex"}}},"name":"riveredge_rocks_small","emissiveTexture":{"index":1},"pbrMetallicRoughness":{"baseColorTexture":{"index":0},"metallicFactor":0}}],"meshes":[{"extras":{},"name":"models/props_rock/riveredge_rocks_small002.vmdl_c.riveredge_rocks_small002_model","primitives":[{"attributes":{"POSITION":0,"TEXCOORD_0":1,"NORMAL":2,"TANGENT":3},"indices":4,"material":0}]}],"nodes":[{"name":"models/props_rock/riveredge_rocks_small002.vmdl_c.riveredge_rocks_small002_model","matrix":[0.99999994,-2.425888E-15,-6.793577E-22,0,-2.7940974E-23,0.99999994,-3.1914448E-15,0,-2.425888E-15,-2.7940974E-23,0.99999994,0,0,0,0,1],"mesh":0}],"samplers":[{"magFilter":9729,"minFilter":9987}],"scenes":[{"name":"riveredge_rocks_small002.vmdl_c","nodes":[0]}],"textures":[{"name":"riveredge_rocks_small_color_psd_155150cc.vtex","sampler":0,"source":0},{"name":"riveredge_rocks_small_refl_tga_60332080.vtex","sampler":0,"source":1}]}