{"asset":{"copyright":"","generator":"Source 2 Viewer 20.0.0.0 - https://valveresourceformat.github.io","version":"2.0"},"accessors":[{"bufferView":0,"componentType":5126,"count":703,"max":[3.346475124359131,7.312410354614258,0.42600396275520325],"min":[-3.2519869804382324,-3.7277621345310763E-07,-0.30633649230003357],"type":"VEC3"},{"bufferView":1,"componentType":5126,"count":703,"max":[0.999542236328125,0.9899899363517761],"min":[0.004943998530507088,0.00878933072090149],"type":"VEC2"},{"bufferView":2,"componentType":5126,"count":703,"max":[0.9999998807907104,0.9999998807907104,0.9999998807907104],"min":[-0.9999998807907104,-0.9999998807907104,-0.9999998807907104],"type":"VEC3"},{"bufferView":3,"componentType":5126,"count":703,"type":"VEC4"},{"bufferView":4,"componentType":5125,"count":1539,"type":"SCALAR"}],"bufferViews":[{"buffer":0,"byteLength":8436,"byteOffset":11248,"target":34962},{"buffer":0,"byteLength":5624,"byteOffset":34276,"target":34962},{"buffer":0,"byteLength":8436,"byteOffset":19684,"target":34962},{"buffer":0,"byteLength":11248,"target":34962},{"buffer":0,"byteLength":6156,"byteOffset":28120,"target":34963}],"buffers":[{"byteLength":39900,"uri":"wood_wall002.bin"}],"images":[{"name":"wood_walls001_color_psd_4280fcea.vtex","uri":"wood_walls001_color_psd_4280fcea.png"},{"name":"wood_walls001_normal_psd_9df0ec57.vtex","uri":"wood_walls001_normal_psd_9df0ec57.png"},{"name":"wood_walls001_refl_psd_6ae4a4d4.vtex","uri":"wood_walls001_refl_psd_6ae4a4d4.png"}],"materials":[{"extras":{"vmat":{"Name":"materials/models/props_mines/wood_walls001.vmat","ShaderName":"global_lit_simple.vfx","IntParams":{"F_NORMAL_MAP":1,"F_SPECULAR":1},"FloatParams":{"g_flBumpStrength":1.75,"g_flSpecularBloom":5.724,"g_flSpecularIntensity":1.289},"VectorParams":{"g_vColorTint":[1,1,1,0],"g_vTexCoordOffset":[0,0,0,0],"g_vTexCoordScale":[1,1,0,0]},"TextureParams":{"g_tColor":"materials/models/props_mines/wood_walls001_color_psd_4280fcea.vtex","g_tNormal":"materials/models/props_mines/wood_walls001_normal_psd_9df0ec57.vtex","g_tSpecular":"materials/models/props_mines/wood_walls001_refl_psd_6ae4a4d4.vtex"}}},"name":"wood_walls001","emissiveTexture":{"index":2},"normalTexture":{"index":1},"pbrMetallicRoughness":{"baseColorTexture":{"index":0},"metallicFactor":0}}],"meshes":[{"extras":{},"name":"models/props_mines/wood_wall002.vmdl_c.wood_wall002","primitives":[{"attributes":{"POSITION":0,"TEXCOORD_0":1,"NORMAL":2,"TANGENT":3},"indices":4,"material":0}]}],"nodes":[{"name":"models/props_mines/wood_wall002.vmdl_c.wood_wall002","matrix":[0.99999994,-2.425888E-15,-6.793577E-22,0,-2.7940974E-23,0.99999994,-3.1914448E-15,0,-2.425888E-15,-2.7940974E-23,0.99999994,0,0,0,0,1],"mesh":0}],"samplers":[{"magFilter":9729,"minFilter":9987}],"scenes":[{"name":"wood_wall002.vmdl_c","nodes":[0]}],"textures":[{"name":"wood_walls001_color_psd_4280fcea.vtex","sampler":0,"source":0},{"name":"wood_walls001_normal_psd_9df0ec57.vtex","sampler":0,"source":1},{"name":"wood_walls001_refl_psd_6ae4a4d4.vtex","sampler":0,"source":2}]}