{"asset":{"copyright":"","generator":"Source 2 Viewer 20.0.0.0 - https://valveresourceformat.github.io","version":"2.0"},"accessors":[{"bufferView":0,"componentType":5126,"count":846,"max":[3.4149787425994873,8.128049850463867,0.4260041415691376],"min":[-3.257523775100708,-0.001912735402584076,-0.306336373090744],"type":"VEC3"},{"bufferView":1,"componentType":5126,"count":846,"max":[0.999542236328125,0.9905392527580261],"min":[0.004943998530507088,0.00878933072090149],"type":"VEC2"},{"bufferView":2,"componentType":5126,"count":846,"max":[0.9999998807907104,0.9999998807907104,0.9999998807907104],"min":[-0.9999998807907104,-0.9999998807907104,-0.9999998807907104],"type":"VEC3"},{"bufferView":3,"componentType":5126,"count":846,"type":"VEC4"},{"bufferView":4,"componentType":5125,"count":1842,"type":"SCALAR"}],"bufferViews":[{"buffer":0,"byteLength":10152,"byteOffset":13536,"target":34962},{"buffer":0,"byteLength":6768,"byteOffset":41208,"target":34962},{"buffer":0,"byteLength":10152,"byteOffset":23688,"target":34962},{"buffer":0,"byteLength":13536,"target":34962},{"buffer":0,"byteLength":7368,"byteOffset":33840,"target":34963}],"buffers":[{"byteLength":47976,"uri":"wood_wall001.bin"}],"images":[{"name":"wood_walls001_color_psd_4280fcea.vtex","uri":"wood_walls001_color_psd_4280fcea.png"},{"name":"wood_walls001_normal_psd_9df0ec57.vtex","uri":"wood_walls001_normal_psd_9df0ec57.png"},{"name":"wood_walls001_refl_psd_6ae4a4d4.vtex","uri":"wood_walls001_refl_psd_6ae4a4d4.png"}],"materials":[{"extras":{"vmat":{"Name":"materials/models/props_mines/wood_walls001.vmat","ShaderName":"global_lit_simple.vfx","IntParams":{"F_NORMAL_MAP":1,"F_SPECULAR":1},"FloatParams":{"g_flBumpStrength":1.75,"g_flSpecularBloom":5.724,"g_flSpecularIntensity":1.289},"VectorParams":{"g_vColorTint":[1,1,1,0],"g_vTexCoordOffset":[0,0,0,0],"g_vTexCoordScale":[1,1,0,0]},"TextureParams":{"g_tColor":"materials/models/props_mines/wood_walls001_color_psd_4280fcea.vtex","g_tNormal":"materials/models/props_mines/wood_walls001_normal_psd_9df0ec57.vtex","g_tSpecular":"materials/models/props_mines/wood_walls001_refl_psd_6ae4a4d4.vtex"}}},"name":"wood_walls001","emissiveTexture":{"index":2},"normalTexture":{"index":1},"pbrMetallicRoughness":{"baseColorTexture":{"index":0},"metallicFactor":0}}],"meshes":[{"extras":{},"name":"models/props_mines/wood_wall001.vmdl_c.wood_wall001","primitives":[{"attributes":{"POSITION":0,"TEXCOORD_0":1,"NORMAL":2,"TANGENT":3},"indices":4,"material":0}]}],"nodes":[{"name":"models/props_mines/wood_wall001.vmdl_c.wood_wall001","matrix":[0.99999994,-2.425888E-15,-6.793577E-22,0,-2.7940974E-23,0.99999994,-3.1914448E-15,0,-2.425888E-15,-2.7940974E-23,0.99999994,0,0,0,0,1],"mesh":0}],"samplers":[{"magFilter":9729,"minFilter":9987}],"scenes":[{"name":"wood_wall001.vmdl_c","nodes":[0]}],"textures":[{"name":"wood_walls001_color_psd_4280fcea.vtex","sampler":0,"source":0},{"name":"wood_walls001_normal_psd_9df0ec57.vtex","sampler":0,"source":1},{"name":"wood_walls001_refl_psd_6ae4a4d4.vtex","sampler":0,"source":2}]}