{"asset":{"copyright":"","generator":"Source 2 Viewer 20.0.0.0 - https://valveresourceformat.github.io","version":"2.0"},"accessors":[{"bufferView":0,"componentType":5126,"count":475,"max":[3.151045083999634,1.013864517211914,2.601510524749756],"min":[-0.7714226245880127,-0.002386336913332343,-1.0644701719284058],"type":"VEC3"},{"bufferView":1,"componentType":5126,"count":475,"max":[0.9965819120407104,0.9946287274360657],"min":[0.005737479776144028,0.0011597033590078354],"type":"VEC2"},{"bufferView":2,"componentType":5126,"count":475,"max":[0.9994627237319946,0.9954079389572144,0.9960225224494934],"min":[-0.9999998807907104,-0.8117611408233643,-0.9999998807907104],"type":"VEC3"},{"bufferView":3,"componentType":5126,"count":475,"type":"VEC4"},{"bufferView":4,"componentType":5125,"count":867,"type":"SCALAR"}],"bufferViews":[{"buffer":0,"byteLength":5700,"byteOffset":7600,"target":34962},{"buffer":0,"byteLength":3800,"byteOffset":19000,"target":34962},{"buffer":0,"byteLength":5700,"byteOffset":13300,"target":34962},{"buffer":0,"byteLength":7600,"target":34962},{"buffer":0,"byteLength":3468,"byteOffset":22800,"target":34963}],"buffers":[{"byteLength":26268,"uri":"mines_rocks_ew_01f.bin"}],"images":[{"name":"riveredge_rocks_small_color_psd_155150cc.vtex","uri":"riveredge_rocks_small_color_psd_155150cc.png"},{"name":"riveredge_rocks_small_refl_tga_60332080.vtex","uri":"riveredge_rocks_small_refl_tga_60332080.png"}],"materials":[{"extras":{"vmat":{"Name":"materials/models/props_rock/riveredge_rocks_small.vmat","ShaderName":"global_lit_simple.vfx","IntParams":{"F_SPECULAR":1},"FloatParams":{"g_flSpecularBloom":0,"g_flSpecularIntensity":0.3},"VectorParams":{"g_vColorTint":[1,1,1,0],"g_vTexCoordOffset":[0,0,0,0],"g_vTexCoordScale":[1,1,0,0],"TextureSelfIllumMask":[0,0,0,0]},"TextureParams":{"g_tColor":"materials/models/props_rock/riveredge_rocks_small_color_psd_155150cc.vtex","g_tSpecular":"materials/models/props_rock/riveredge_rocks_small_refl_tga_60332080.vtex"}}},"name":"riveredge_rocks_small","emissiveTexture":{"index":1},"pbrMetallicRoughness":{"baseColorTexture":{"index":0},"metallicFactor":0}}],"meshes":[{"extras":{},"name":"models/props_mines/mines_rocks_ew_01f.vmdl_c.mines_rocks_ew_01f","primitives":[{"attributes":{"POSITION":0,"TEXCOORD_0":1,"NORMAL":2,"TANGENT":3},"indices":4,"material":0}]}],"nodes":[{"name":"models/props_mines/mines_rocks_ew_01f.vmdl_c.mines_rocks_ew_01f","matrix":[0.99999994,-2.425888E-15,-6.793577E-22,0,-2.7940974E-23,0.99999994,-3.1914448E-15,0,-2.425888E-15,-2.7940974E-23,0.99999994,0,0,0,0,1],"mesh":0}],"samplers":[{"magFilter":9729,"minFilter":9987}],"scenes":[{"name":"mines_rocks_ew_01f.vmdl_c","nodes":[0]}],"textures":[{"name":"riveredge_rocks_small_color_psd_155150cc.vtex","sampler":0,"source":0},{"name":"riveredge_rocks_small_refl_tga_60332080.vtex","sampler":0,"source":1}]}