{"asset":{"copyright":"","generator":"Source 2 Viewer 20.0.0.0 - https://valveresourceformat.github.io","version":"2.0"},"accessors":[{"bufferView":0,"componentType":5126,"count":397,"max":[2.3395652770996094,0.9217902421951294,4.308669567108154],"min":[-0.7714226245880127,-0.006041722372174263,-1.0644701719284058],"type":"VEC3"},{"bufferView":1,"componentType":5126,"count":397,"max":[27.25341796875,70.5770263671875],"min":[-62.24333572387695,-36.974369049072266],"type":"VEC2"},{"bufferView":2,"componentType":5126,"count":397,"max":[0.9988527297973633,0.9864398837089539,0.9988527297973633],"min":[-0.9997478127479553,-0.79157954454422,-0.9922778010368347],"type":"VEC3"},{"bufferView":3,"componentType":5126,"count":397,"type":"VEC4"},{"bufferView":4,"componentType":5125,"count":684,"type":"SCALAR"}],"bufferViews":[{"buffer":0,"byteLength":4764,"byteOffset":6352,"target":34962},{"buffer":0,"byteLength":3176,"byteOffset":15880,"target":34962},{"buffer":0,"byteLength":4764,"byteOffset":11116,"target":34962},{"buffer":0,"byteLength":6352,"target":34962},{"buffer":0,"byteLength":2736,"byteOffset":19056,"target":34963}],"buffers":[{"byteLength":21792,"uri":"mines_rocks_ew_01b.bin"}],"images":[{"name":"riveredge_rocks_small_color_psd_155150cc.vtex","uri":"riveredge_rocks_small_color_psd_155150cc.png"},{"name":"riveredge_rocks_small_refl_tga_60332080.vtex","uri":"riveredge_rocks_small_refl_tga_60332080.png"}],"materials":[{"extras":{"vmat":{"Name":"materials/models/props_rock/riveredge_rocks_small.vmat","ShaderName":"global_lit_simple.vfx","IntParams":{"F_SPECULAR":1},"FloatParams":{"g_flSpecularBloom":0,"g_flSpecularIntensity":0.3},"VectorParams":{"g_vColorTint":[1,1,1,0],"g_vTexCoordOffset":[0,0,0,0],"g_vTexCoordScale":[1,1,0,0],"TextureSelfIllumMask":[0,0,0,0]},"TextureParams":{"g_tColor":"materials/models/props_rock/riveredge_rocks_small_color_psd_155150cc.vtex","g_tSpecular":"materials/models/props_rock/riveredge_rocks_small_refl_tga_60332080.vtex"}}},"name":"riveredge_rocks_small","emissiveTexture":{"index":1},"pbrMetallicRoughness":{"baseColorTexture":{"index":0},"metallicFactor":0}}],"meshes":[{"extras":{},"name":"models/props_mines/mines_rocks_ew_01b.vmdl_c.mines_rocks_ew_01b","primitives":[{"attributes":{"POSITION":0,"TEXCOORD_0":1,"NORMAL":2,"TANGENT":3},"indices":4,"material":0}]}],"nodes":[{"name":"models/props_mines/mines_rocks_ew_01b.vmdl_c.mines_rocks_ew_01b","matrix":[0.99999994,-2.425888E-15,-6.793577E-22,0,-2.7940974E-23,0.99999994,-3.1914448E-15,0,-2.425888E-15,-2.7940974E-23,0.99999994,0,0,0,0,1],"mesh":0}],"samplers":[{"magFilter":9729,"minFilter":9987}],"scenes":[{"name":"mines_rocks_ew_01b.vmdl_c","nodes":[0]}],"textures":[{"name":"riveredge_rocks_small_color_psd_155150cc.vtex","sampler":0,"source":0},{"name":"riveredge_rocks_small_refl_tga_60332080.vtex","sampler":0,"source":1}]}