{"asset":{"copyright":"","generator":"Source 2 Viewer 20.0.0.0 - https://valveresourceformat.github.io","version":"2.0"},"accessors":[{"bufferView":0,"componentType":5126,"count":6783,"max":[3.2406537532806396,6.44409704208374,3.2347052097320557],"min":[-3.260261297225952,-0.15118525922298431,-3.2416985034942627],"type":"VEC3"},{"bufferView":1,"componentType":5126,"count":6783,"max":[2.685546875,0.99609375],"min":[0.00390625,0.00390625],"type":"VEC2"},{"bufferView":2,"componentType":5126,"count":6783,"max":[0.9997313022613525,0.9999998807907104,0.9998698234558105],"min":[-0.9998699426651001,-0.9999998807907104,-0.9997313022613525],"type":"VEC3"},{"bufferView":3,"componentType":5126,"count":6783,"type":"VEC4"},{"bufferView":4,"componentType":5123,"count":6783,"type":"VEC4"},{"bufferView":5,"componentType":5126,"count":6783,"type":"VEC4"},{"bufferView":6,"componentType":5125,"count":19488,"type":"SCALAR"},{"name":"Bind Matrices","bufferView":7,"componentType":5126,"count":1,"type":"MAT4"}],"bufferViews":[{"buffer":0,"byteLength":81396,"byteOffset":217056,"target":34962},{"buffer":0,"byteLength":54264,"byteOffset":457800,"target":34962},{"buffer":0,"byteLength":81396,"byteOffset":298452,"target":34962},{"buffer":0,"byteLength":108528,"target":34962},{"buffer":0,"byteLength":54264,"byteOffset":512064,"byteStride":8,"target":34962},{"buffer":0,"byteLength":108528,"byteOffset":108528,"target":34962},{"buffer":0,"byteLength":77952,"byteOffset":379848,"target":34963},{"buffer":0,"byteLength":64,"byteOffset":566328}],"buffers":[{"byteLength":566392,"uri":"old_well.bin"}],"images":[{"name":"old_well_color_tga_2a6ad5ef.vtex","uri":"old_well_color_tga_2a6ad5ef.png"},{"name":"old_well_normal_tga_7757dc27.vtex","uri":"old_well_normal_tga_7757dc27.png"},{"name":"old_well_spec_tga_3bde4b7f.vtex","uri":"old_well_spec_tga_3bde4b7f.png"}],"materials":[{"extras":{"vmat":{"Name":"materials/models/props_structures/old_well_color.vmat","ShaderName":"global_lit_simple.vfx","IntParams":{"F_NORMAL_MAP":1,"F_SPECULAR":1},"FloatParams":{"g_flBumpStrength":1,"g_flSpecularBloom":0,"g_flSpecularIntensity":1},"VectorParams":{"g_vColorTint":[1,1,1,0],"g_vTexCoordOffset":[0,0,0,0],"g_vTexCoordScale":[1,1,0,0],"TextureSelfIllumMask":[0,0,0,0]},"TextureParams":{"g_tColor":"materials/models/props_structures/old_well_color_tga_2a6ad5ef.vtex","g_tNormal":"materials/models/props_structures/old_well_normal_tga_7757dc27.vtex","g_tSpecular":"materials/models/props_structures/old_well_spec_tga_3bde4b7f.vtex"}}},"name":"old_well_color","emissiveTexture":{"index":2},"normalTexture":{"index":1},"pbrMetallicRoughness":{"baseColorTexture":{"index":0},"metallicFactor":0}}],"meshes":[{"extras":{},"name":"models/props_structures/old_well.vmdl_c.old_well","primitives":[{"attributes":{"POSITION":0,"TEXCOORD_0":1,"NORMAL":2,"TANGENT":3,"JOINTS_0":4,"WEIGHTS_0":5},"indices":6,"material":0}]}],"nodes":[{"name":"models/props_structures/old_well.vmdl_c","children":[1],"matrix":[0.99999994,-2.425888E-15,-6.793577E-22,0,-2.7940974E-23,0.99999994,-3.1914448E-15,0,-2.425888E-15,-2.7940974E-23,0.99999994,0,0,0,0,1]},{"name":"root","rotation":[0,0,0,0.99999994]},{"name":"models/props_structures/old_well.vmdl_c.old_well","mesh":0,"skin":0}],"samplers":[{"magFilter":9729,"minFilter":9987}],"scenes":[{"name":"old_well.vmdl_c","nodes":[0,2]}],"skins":[{"inverseBindMatrices":7,"joints":[1]}],"textures":[{"name":"old_well_color_tga_2a6ad5ef.vtex","sampler":0,"source":0},{"name":"old_well_normal_tga_7757dc27.vtex","sampler":0,"source":1},{"name":"old_well_spec_tga_3bde4b7f.vtex","sampler":0,"source":2}]}