{"asset":{"copyright":"","generator":"Source 2 Viewer 20.0.0.0 - https://valveresourceformat.github.io","version":"2.0"},"accessors":[{"bufferView":0,"componentType":5126,"count":4,"max":[11.70431900024414,1.3177490245652734E-06,11.704318046569824],"min":[-11.70431900024414,-1.4727783081980306E-06,-11.704318046569824],"type":"VEC3"},{"bufferView":1,"componentType":5126,"count":4,"max":[0.9949949383735657,0.9949949383735657],"min":[0.004974517039954662,0.004974517039954662],"type":"VEC2"},{"bufferView":2,"componentType":5126,"count":4,"max":[0,0.9999998807907104,0],"min":[0,0.9999998807907104,0],"type":"VEC3"},{"bufferView":3,"componentType":5126,"count":4,"type":"VEC4"},{"bufferView":4,"componentType":5125,"count":6,"type":"SCALAR"}],"bufferViews":[{"buffer":0,"byteLength":48,"byteOffset":64,"target":34962},{"buffer":0,"byteLength":32,"byteOffset":160,"target":34962},{"buffer":0,"byteLength":48,"byteOffset":112,"target":34962},{"buffer":0,"byteLength":64,"target":34962},{"buffer":0,"byteLength":24,"byteOffset":192,"target":34963}],"buffers":[{"byteLength":216,"uri":"ground_generic_treadmil.bin"}],"images":[{"name":"ground_generic_treadmil_large_color_psd_2e6bd717.vtex","uri":"ground_generic_treadmil_large_color_psd_2e6bd717.png"}],"materials":[{"extras":{"vmat":{"Name":"materials/models/props_generic/ground_generic_treadmil.vmat","ShaderName":"global_lit_simple.vfx","IntParams":{},"FloatParams":{},"VectorParams":{"g_vColorTint":[0.85098,0.85098,0.85098,0],"g_vTexCoordOffset":[0,0,0,0],"g_vTexCoordScale":[1,1,0,0]},"TextureParams":{"g_tColor":"materials/models/props_generic/ground_generic_treadmil_large_color_psd_2e6bd717.vtex"}}},"name":"ground_generic_treadmil","pbrMetallicRoughness":{"baseColorFactor":[0.693871,0.693871,0.693871,1],"baseColorTexture":{"index":0},"metallicFactor":0}}],"meshes":[{"extras":{},"name":"models/props_generic/ground_generic_treadmil.vmdl_c.pedestal_2_ground_model","primitives":[{"attributes":{"POSITION":0,"TEXCOORD_0":1,"NORMAL":2,"TANGENT":3},"indices":4,"material":0}]}],"nodes":[{"name":"models/props_generic/ground_generic_treadmil.vmdl_c.pedestal_2_ground_model","matrix":[0.99999994,-2.425888E-15,-6.793577E-22,0,-2.7940974E-23,0.99999994,-3.1914448E-15,0,-2.425888E-15,-2.7940974E-23,0.99999994,0,0,0,0,1],"mesh":0}],"samplers":[{"magFilter":9729,"minFilter":9987}],"scenes":[{"name":"ground_generic_treadmil.vmdl_c","nodes":[0]}],"textures":[{"name":"ground_generic_treadmil_large_color_psd_2e6bd717.vtex","sampler":0,"source":0}]}